<mxfile host="app.diagrams.net" modified="2024-05-28T14:44:36.472Z" agent="Mozilla/5.0 (Windows NT 10.0; Win64; x64) AppleWebKit/537.36 (KHTML, like Gecko) Chrome/121.0.0.0 Safari/537.36" etag="kHDDxPvaAkZeGsPfpRZ6" version="24.4.9" type="device" pages="2">
  <diagram name="Página-1" id="bxvimao_P090NeMA0EiW">
    <mxGraphModel dx="1434" dy="772" grid="1" gridSize="10" guides="1" tooltips="1" connect="1" arrows="1" fold="1" page="1" pageScale="1" pageWidth="827" pageHeight="1169" math="0" shadow="0">
      <root>
        <mxCell id="0" />
        <mxCell id="1" parent="0" />
        <mxCell id="ApZKAQ_FeUihaHH6Phk7-1" value="procurar cliente" style="rounded=1;whiteSpace=wrap;html=1;" parent="1" vertex="1">
          <mxGeometry x="40" y="40" width="530" height="50" as="geometry" />
        </mxCell>
        <mxCell id="ApZKAQ_FeUihaHH6Phk7-2" value="" style="shape=image;html=1;verticalLabelPosition=bottom;verticalAlign=top;imageAspect=1;aspect=fixed;image=https://images.vexels.com/media/users/3/204845/isolated/lists/31084e04c65187ba8d1ecb9880f5d29f-design-de-icone-de-traco-de-lupa.png;" parent="1" vertex="1">
          <mxGeometry x="580" y="32.5" width="55.41" height="65" as="geometry" />
        </mxCell>
        <mxCell id="ApZKAQ_FeUihaHH6Phk7-3" value="Não encontrado&amp;nbsp;" style="text;html=1;align=center;verticalAlign=middle;whiteSpace=wrap;rounded=0;" parent="1" vertex="1">
          <mxGeometry x="200" y="140" width="220" height="30" as="geometry" />
        </mxCell>
        <mxCell id="ApZKAQ_FeUihaHH6Phk7-5" value="Fazer Cadastro" style="rounded=1;whiteSpace=wrap;html=1;fillColor=#d5e8d4;strokeColor=#82b366;" parent="1" vertex="1">
          <mxGeometry x="250" y="180" width="120" height="60" as="geometry" />
        </mxCell>
        <mxCell id="ApZKAQ_FeUihaHH6Phk7-6" value="procurar cliente" style="rounded=1;whiteSpace=wrap;html=1;" parent="1" vertex="1">
          <mxGeometry x="40" y="357.5" width="530" height="50" as="geometry" />
        </mxCell>
        <mxCell id="ApZKAQ_FeUihaHH6Phk7-7" value="" style="shape=image;html=1;verticalLabelPosition=bottom;verticalAlign=top;imageAspect=1;aspect=fixed;image=https://images.vexels.com/media/users/3/204845/isolated/lists/31084e04c65187ba8d1ecb9880f5d29f-design-de-icone-de-traco-de-lupa.png;" parent="1" vertex="1">
          <mxGeometry x="580" y="350" width="55.41" height="65" as="geometry" />
        </mxCell>
        <mxCell id="ApZKAQ_FeUihaHH6Phk7-8" value="" style="ellipse;whiteSpace=wrap;html=1;aspect=fixed;" parent="1" vertex="1">
          <mxGeometry x="40" y="480" width="80" height="80" as="geometry" />
        </mxCell>
        <mxCell id="ApZKAQ_FeUihaHH6Phk7-9" value="Nome do cliente" style="text;html=1;align=center;verticalAlign=middle;whiteSpace=wrap;rounded=0;" parent="1" vertex="1">
          <mxGeometry x="140" y="505" width="160" height="30" as="geometry" />
        </mxCell>
        <mxCell id="ApZKAQ_FeUihaHH6Phk7-11" value="" style="shape=actor;whiteSpace=wrap;html=1;" parent="1" vertex="1">
          <mxGeometry x="60" y="490" width="40" height="60" as="geometry" />
        </mxCell>
        <mxCell id="ApZKAQ_FeUihaHH6Phk7-12" value="Atualizar?" style="rounded=1;whiteSpace=wrap;html=1;fillColor=#d5e8d4;strokeColor=#82b366;" parent="1" vertex="1">
          <mxGeometry x="470" y="505" width="76" height="30" as="geometry" />
        </mxCell>
        <mxCell id="ApZKAQ_FeUihaHH6Phk7-13" value="Apagar?" style="rounded=1;whiteSpace=wrap;html=1;fillColor=#d5e8d4;strokeColor=#82b366;" parent="1" vertex="1">
          <mxGeometry x="380" y="505" width="76" height="30" as="geometry" />
        </mxCell>
        <mxCell id="ApZKAQ_FeUihaHH6Phk7-14" value="Entrar" style="rounded=1;whiteSpace=wrap;html=1;fillColor=#d5e8d4;strokeColor=#82b366;" parent="1" vertex="1">
          <mxGeometry x="294" y="505" width="76" height="30" as="geometry" />
        </mxCell>
        <mxCell id="ApZKAQ_FeUihaHH6Phk7-15" value="procurar cliente" style="rounded=1;whiteSpace=wrap;html=1;" parent="1" vertex="1">
          <mxGeometry x="40" y="707.5" width="530" height="50" as="geometry" />
        </mxCell>
        <mxCell id="ApZKAQ_FeUihaHH6Phk7-16" value="" style="shape=image;html=1;verticalLabelPosition=bottom;verticalAlign=top;imageAspect=1;aspect=fixed;image=https://images.vexels.com/media/users/3/204845/isolated/lists/31084e04c65187ba8d1ecb9880f5d29f-design-de-icone-de-traco-de-lupa.png;" parent="1" vertex="1">
          <mxGeometry x="580" y="700" width="55.41" height="65" as="geometry" />
        </mxCell>
        <mxCell id="ApZKAQ_FeUihaHH6Phk7-17" value="" style="ellipse;whiteSpace=wrap;html=1;aspect=fixed;" parent="1" vertex="1">
          <mxGeometry x="40" y="800" width="80" height="80" as="geometry" />
        </mxCell>
        <mxCell id="ApZKAQ_FeUihaHH6Phk7-18" value="Nome do cliente" style="text;html=1;align=center;verticalAlign=middle;whiteSpace=wrap;rounded=0;" parent="1" vertex="1">
          <mxGeometry x="140" y="825" width="160" height="30" as="geometry" />
        </mxCell>
        <mxCell id="ApZKAQ_FeUihaHH6Phk7-19" value="" style="shape=actor;whiteSpace=wrap;html=1;" parent="1" vertex="1">
          <mxGeometry x="60" y="810" width="40" height="60" as="geometry" />
        </mxCell>
        <mxCell id="ApZKAQ_FeUihaHH6Phk7-20" value="Atualizar?" style="rounded=1;whiteSpace=wrap;html=1;fillColor=#d5e8d4;strokeColor=#82b366;" parent="1" vertex="1">
          <mxGeometry x="470" y="825" width="76" height="30" as="geometry" />
        </mxCell>
        <mxCell id="ApZKAQ_FeUihaHH6Phk7-21" value="Apagar?" style="rounded=1;whiteSpace=wrap;html=1;fillColor=#d5e8d4;strokeColor=#82b366;" parent="1" vertex="1">
          <mxGeometry x="380" y="825" width="76" height="30" as="geometry" />
        </mxCell>
        <mxCell id="ApZKAQ_FeUihaHH6Phk7-22" value="Entrar" style="rounded=1;whiteSpace=wrap;html=1;fillColor=#d5e8d4;strokeColor=#82b366;" parent="1" vertex="1">
          <mxGeometry x="294" y="825" width="76" height="30" as="geometry" />
        </mxCell>
        <mxCell id="ApZKAQ_FeUihaHH6Phk7-53" value="" style="ellipse;whiteSpace=wrap;html=1;aspect=fixed;" parent="1" vertex="1">
          <mxGeometry x="40" y="920" width="80" height="80" as="geometry" />
        </mxCell>
        <mxCell id="ApZKAQ_FeUihaHH6Phk7-54" value="Nome do cliente" style="text;html=1;align=center;verticalAlign=middle;whiteSpace=wrap;rounded=0;" parent="1" vertex="1">
          <mxGeometry x="140" y="945" width="160" height="30" as="geometry" />
        </mxCell>
        <mxCell id="ApZKAQ_FeUihaHH6Phk7-55" value="" style="shape=actor;whiteSpace=wrap;html=1;" parent="1" vertex="1">
          <mxGeometry x="60" y="930" width="40" height="60" as="geometry" />
        </mxCell>
        <mxCell id="ApZKAQ_FeUihaHH6Phk7-56" value="Atualizar?" style="rounded=1;whiteSpace=wrap;html=1;fillColor=#d5e8d4;strokeColor=#82b366;" parent="1" vertex="1">
          <mxGeometry x="470" y="945" width="76" height="30" as="geometry" />
        </mxCell>
        <mxCell id="ApZKAQ_FeUihaHH6Phk7-57" value="Apagar?" style="rounded=1;whiteSpace=wrap;html=1;fillColor=#d5e8d4;strokeColor=#82b366;" parent="1" vertex="1">
          <mxGeometry x="380" y="945" width="76" height="30" as="geometry" />
        </mxCell>
        <mxCell id="ApZKAQ_FeUihaHH6Phk7-58" value="Entrar" style="rounded=1;whiteSpace=wrap;html=1;fillColor=#d5e8d4;strokeColor=#82b366;" parent="1" vertex="1">
          <mxGeometry x="294" y="945" width="76" height="30" as="geometry" />
        </mxCell>
        <mxCell id="ApZKAQ_FeUihaHH6Phk7-59" value="" style="ellipse;whiteSpace=wrap;html=1;aspect=fixed;" parent="1" vertex="1">
          <mxGeometry x="40" y="1060" width="80" height="80" as="geometry" />
        </mxCell>
        <mxCell id="ApZKAQ_FeUihaHH6Phk7-60" value="Nome do cliente" style="text;html=1;align=center;verticalAlign=middle;whiteSpace=wrap;rounded=0;" parent="1" vertex="1">
          <mxGeometry x="140" y="1085" width="160" height="30" as="geometry" />
        </mxCell>
        <mxCell id="ApZKAQ_FeUihaHH6Phk7-61" value="" style="shape=actor;whiteSpace=wrap;html=1;" parent="1" vertex="1">
          <mxGeometry x="60" y="1070" width="40" height="60" as="geometry" />
        </mxCell>
        <mxCell id="ApZKAQ_FeUihaHH6Phk7-62" value="Atualizar?" style="rounded=1;whiteSpace=wrap;html=1;fillColor=#d5e8d4;strokeColor=#82b366;" parent="1" vertex="1">
          <mxGeometry x="470" y="1085" width="76" height="30" as="geometry" />
        </mxCell>
        <mxCell id="ApZKAQ_FeUihaHH6Phk7-63" value="Apagar?" style="rounded=1;whiteSpace=wrap;html=1;fillColor=#d5e8d4;strokeColor=#82b366;" parent="1" vertex="1">
          <mxGeometry x="380" y="1085" width="76" height="30" as="geometry" />
        </mxCell>
        <mxCell id="ApZKAQ_FeUihaHH6Phk7-64" value="Entrar" style="rounded=1;whiteSpace=wrap;html=1;fillColor=#d5e8d4;strokeColor=#82b366;" parent="1" vertex="1">
          <mxGeometry x="294" y="1085" width="76" height="30" as="geometry" />
        </mxCell>
        <mxCell id="ApZKAQ_FeUihaHH6Phk7-65" value="" style="ellipse;whiteSpace=wrap;html=1;aspect=fixed;fontStyle=1" parent="1" vertex="1">
          <mxGeometry x="40" y="1200" width="80" height="80" as="geometry" />
        </mxCell>
        <mxCell id="ApZKAQ_FeUihaHH6Phk7-66" value="Nome do cliente" style="text;html=1;align=center;verticalAlign=middle;whiteSpace=wrap;rounded=0;fontStyle=1" parent="1" vertex="1">
          <mxGeometry x="140" y="1225" width="160" height="30" as="geometry" />
        </mxCell>
        <mxCell id="ApZKAQ_FeUihaHH6Phk7-67" value="" style="shape=actor;whiteSpace=wrap;html=1;fontStyle=1" parent="1" vertex="1">
          <mxGeometry x="60" y="1210" width="40" height="60" as="geometry" />
        </mxCell>
        <mxCell id="ApZKAQ_FeUihaHH6Phk7-68" value="Atualizar?" style="rounded=1;whiteSpace=wrap;html=1;fillColor=#d5e8d4;strokeColor=#82b366;fontStyle=1" parent="1" vertex="1">
          <mxGeometry x="470" y="1225" width="76" height="30" as="geometry" />
        </mxCell>
        <mxCell id="ApZKAQ_FeUihaHH6Phk7-69" value="Apagar?" style="rounded=1;whiteSpace=wrap;html=1;fillColor=#d5e8d4;strokeColor=#82b366;fontStyle=1" parent="1" vertex="1">
          <mxGeometry x="380" y="1225" width="76" height="30" as="geometry" />
        </mxCell>
        <mxCell id="ApZKAQ_FeUihaHH6Phk7-70" value="Entrar" style="rounded=1;whiteSpace=wrap;html=1;fillColor=#d5e8d4;strokeColor=#82b366;fontStyle=1" parent="1" vertex="1">
          <mxGeometry x="294" y="1225" width="76" height="30" as="geometry" />
        </mxCell>
        <mxCell id="ApZKAQ_FeUihaHH6Phk7-71" value="" style="ellipse;whiteSpace=wrap;html=1;aspect=fixed;" parent="1" vertex="1">
          <mxGeometry x="40" y="1330" width="80" height="80" as="geometry" />
        </mxCell>
        <mxCell id="ApZKAQ_FeUihaHH6Phk7-72" value="Nome do cliente" style="text;html=1;align=center;verticalAlign=middle;whiteSpace=wrap;rounded=0;" parent="1" vertex="1">
          <mxGeometry x="140" y="1355" width="160" height="30" as="geometry" />
        </mxCell>
        <mxCell id="ApZKAQ_FeUihaHH6Phk7-73" value="" style="shape=actor;whiteSpace=wrap;html=1;" parent="1" vertex="1">
          <mxGeometry x="60" y="1340" width="40" height="60" as="geometry" />
        </mxCell>
        <mxCell id="ApZKAQ_FeUihaHH6Phk7-74" value="Atualizar?" style="rounded=1;whiteSpace=wrap;html=1;fillColor=#d5e8d4;strokeColor=#82b366;" parent="1" vertex="1">
          <mxGeometry x="470" y="1355" width="76" height="30" as="geometry" />
        </mxCell>
        <mxCell id="ApZKAQ_FeUihaHH6Phk7-75" value="Apagar?" style="rounded=1;whiteSpace=wrap;html=1;fillColor=#d5e8d4;strokeColor=#82b366;" parent="1" vertex="1">
          <mxGeometry x="380" y="1355" width="76" height="30" as="geometry" />
        </mxCell>
        <mxCell id="ApZKAQ_FeUihaHH6Phk7-76" value="Entrar" style="rounded=1;whiteSpace=wrap;html=1;fillColor=#d5e8d4;strokeColor=#82b366;" parent="1" vertex="1">
          <mxGeometry x="294" y="1355" width="76" height="30" as="geometry" />
        </mxCell>
        <mxCell id="ApZKAQ_FeUihaHH6Phk7-77" value="" style="ellipse;whiteSpace=wrap;html=1;aspect=fixed;" parent="1" vertex="1">
          <mxGeometry x="40" y="1470" width="80" height="80" as="geometry" />
        </mxCell>
        <mxCell id="ApZKAQ_FeUihaHH6Phk7-78" value="Nome do cliente" style="text;html=1;align=center;verticalAlign=middle;whiteSpace=wrap;rounded=0;" parent="1" vertex="1">
          <mxGeometry x="140" y="1495" width="160" height="30" as="geometry" />
        </mxCell>
        <mxCell id="ApZKAQ_FeUihaHH6Phk7-79" value="" style="shape=actor;whiteSpace=wrap;html=1;" parent="1" vertex="1">
          <mxGeometry x="60" y="1480" width="40" height="60" as="geometry" />
        </mxCell>
        <mxCell id="ApZKAQ_FeUihaHH6Phk7-80" value="Atualizar?" style="rounded=1;whiteSpace=wrap;html=1;fillColor=#d5e8d4;strokeColor=#82b366;" parent="1" vertex="1">
          <mxGeometry x="470" y="1495" width="76" height="30" as="geometry" />
        </mxCell>
        <mxCell id="ApZKAQ_FeUihaHH6Phk7-81" value="Apagar?" style="rounded=1;whiteSpace=wrap;html=1;fillColor=#d5e8d4;strokeColor=#82b366;" parent="1" vertex="1">
          <mxGeometry x="380" y="1495" width="76" height="30" as="geometry" />
        </mxCell>
        <mxCell id="ApZKAQ_FeUihaHH6Phk7-82" value="Entrar" style="rounded=1;whiteSpace=wrap;html=1;fillColor=#d5e8d4;strokeColor=#82b366;" parent="1" vertex="1">
          <mxGeometry x="294" y="1495" width="76" height="30" as="geometry" />
        </mxCell>
        <mxCell id="ApZKAQ_FeUihaHH6Phk7-87" value="&lt;font style=&quot;font-size: 36px;&quot;&gt;Página de cadastro&lt;/font&gt;" style="text;html=1;align=center;verticalAlign=middle;whiteSpace=wrap;rounded=0;" parent="1" vertex="1">
          <mxGeometry x="1066" y="40" width="350" height="30" as="geometry" />
        </mxCell>
        <mxCell id="ApZKAQ_FeUihaHH6Phk7-88" value="Nome de usuário:" style="text;html=1;align=center;verticalAlign=middle;whiteSpace=wrap;rounded=0;" parent="1" vertex="1">
          <mxGeometry x="840" y="130" width="120" height="30" as="geometry" />
        </mxCell>
        <mxCell id="ApZKAQ_FeUihaHH6Phk7-89" value="" style="rounded=1;whiteSpace=wrap;html=1;fillColor=#d5e8d4;strokeColor=#82b366;" parent="1" vertex="1">
          <mxGeometry x="840" y="160" width="700" height="40" as="geometry" />
        </mxCell>
        <mxCell id="ApZKAQ_FeUihaHH6Phk7-90" value="E-mail" style="text;html=1;align=center;verticalAlign=middle;whiteSpace=wrap;rounded=0;" parent="1" vertex="1">
          <mxGeometry x="840" y="250" width="120" height="30" as="geometry" />
        </mxCell>
        <mxCell id="ApZKAQ_FeUihaHH6Phk7-91" value="" style="rounded=1;whiteSpace=wrap;html=1;fillColor=#d5e8d4;strokeColor=#82b366;" parent="1" vertex="1">
          <mxGeometry x="840" y="280" width="700" height="40" as="geometry" />
        </mxCell>
        <mxCell id="ApZKAQ_FeUihaHH6Phk7-92" value="Telefone" style="text;html=1;align=center;verticalAlign=middle;whiteSpace=wrap;rounded=0;" parent="1" vertex="1">
          <mxGeometry x="840" y="367.5" width="120" height="30" as="geometry" />
        </mxCell>
        <mxCell id="ApZKAQ_FeUihaHH6Phk7-93" value="" style="rounded=1;whiteSpace=wrap;html=1;fillColor=#d5e8d4;strokeColor=#82b366;" parent="1" vertex="1">
          <mxGeometry x="840" y="397.5" width="700" height="40" as="geometry" />
        </mxCell>
        <mxCell id="ApZKAQ_FeUihaHH6Phk7-94" value="Endereço" style="text;html=1;align=center;verticalAlign=middle;whiteSpace=wrap;rounded=0;" parent="1" vertex="1">
          <mxGeometry x="840" y="480" width="120" height="30" as="geometry" />
        </mxCell>
        <mxCell id="ApZKAQ_FeUihaHH6Phk7-95" value="" style="rounded=1;whiteSpace=wrap;html=1;fillColor=#d5e8d4;strokeColor=#82b366;" parent="1" vertex="1">
          <mxGeometry x="840" y="510" width="700" height="40" as="geometry" />
        </mxCell>
        <mxCell id="ApZKAQ_FeUihaHH6Phk7-99" value="Ir" style="rounded=1;whiteSpace=wrap;html=1;fillColor=#d5e8d4;strokeColor=#82b366;" parent="1" vertex="1">
          <mxGeometry x="1450" y="580" width="90" height="30" as="geometry" />
        </mxCell>
        <mxCell id="ApZKAQ_FeUihaHH6Phk7-100" value="&lt;font style=&quot;font-size: 36px;&quot;&gt;Cadastro Realizado!&lt;/font&gt;" style="text;html=1;align=center;verticalAlign=middle;whiteSpace=wrap;rounded=0;" parent="1" vertex="1">
          <mxGeometry x="1036.5" y="707.5" width="409" height="30" as="geometry" />
        </mxCell>
      </root>
    </mxGraphModel>
  </diagram>
  <diagram id="XuAWWrtT51MjqdmUZVaE" name="Página-2">
    <mxGraphModel dx="2868" dy="2713" grid="1" gridSize="10" guides="1" tooltips="1" connect="1" arrows="1" fold="1" page="1" pageScale="1" pageWidth="827" pageHeight="1169" math="0" shadow="0">
      <root>
        <mxCell id="0" />
        <mxCell id="1" parent="0" />
        <mxCell id="p4KYx9Ay_tRQnupfqdgm-6" value="" style="shape=ext;double=1;rounded=0;whiteSpace=wrap;html=1;fillColor=#D5E8D4;strokeColor=#97D077;strokeWidth=6;" vertex="1" parent="1">
          <mxGeometry x="230" y="-1090" width="2940" height="2360" as="geometry" />
        </mxCell>
        <mxCell id="p4KYx9Ay_tRQnupfqdgm-12" value="" style="rounded=1;whiteSpace=wrap;html=1;" vertex="1" parent="1">
          <mxGeometry x="2510" y="-1040" width="490" height="1020" as="geometry" />
        </mxCell>
        <mxCell id="p4KYx9Ay_tRQnupfqdgm-10" value="" style="rounded=1;whiteSpace=wrap;html=1;" vertex="1" parent="1">
          <mxGeometry x="1820" y="-1040" width="490" height="1020" as="geometry" />
        </mxCell>
        <mxCell id="p4KYx9Ay_tRQnupfqdgm-11" value="" style="rounded=1;whiteSpace=wrap;html=1;" vertex="1" parent="1">
          <mxGeometry x="430.39" y="-1040" width="490" height="1020" as="geometry" />
        </mxCell>
        <mxCell id="X_VbzCY8tAeAVXQSnZSo-11" value="" style="shape=image;verticalLabelPosition=bottom;labelBackgroundColor=default;verticalAlign=top;aspect=fixed;imageAspect=0;image=https://png.pngtree.com/png-clipart/20231005/original/pngtree-iphone-mockup-with-blank-screen-on-transparent-background-png-image_13279256.png;clipPath=inset(9.67% 28% 8% 27.67%);" vertex="1" parent="1">
          <mxGeometry x="390" y="-1060" width="570.77" height="1060" as="geometry" />
        </mxCell>
        <mxCell id="CFxwsGWaFdRzIgu9TEgN-1" value="procurar cliente" style="rounded=1;whiteSpace=wrap;html=1;" vertex="1" parent="1">
          <mxGeometry x="460" y="-958.95" width="391.66" height="40" as="geometry" />
        </mxCell>
        <mxCell id="CFxwsGWaFdRzIgu9TEgN-2" value="" style="shape=image;html=1;verticalLabelPosition=bottom;verticalAlign=top;imageAspect=1;aspect=fixed;image=https://images.vexels.com/media/users/3/204845/isolated/lists/31084e04c65187ba8d1ecb9880f5d29f-design-de-icone-de-traco-de-lupa.png;" vertex="1" parent="1">
          <mxGeometry x="860.0027535647705" y="-960" width="35.88519945349693" height="42.095974814605675" as="geometry" />
        </mxCell>
        <mxCell id="RbqGqWquLHpoGGyO6dPe-72" value="" style="group" vertex="1" connectable="0" parent="1">
          <mxGeometry x="460" y="-889.9961971830985" width="383.6372098218035" height="50" as="geometry" />
        </mxCell>
        <mxCell id="CFxwsGWaFdRzIgu9TEgN-4" value="Nome do cliente" style="text;html=1;align=center;verticalAlign=middle;whiteSpace=wrap;rounded=0;" vertex="1" parent="RbqGqWquLHpoGGyO6dPe-72">
          <mxGeometry x="57.54865806754998" y="7.253521126760575" width="118.23785290808014" height="35.49295774647888" as="geometry" />
        </mxCell>
        <mxCell id="CFxwsGWaFdRzIgu9TEgN-3" value="" style="ellipse;whiteSpace=wrap;html=1;aspect=fixed;" vertex="1" parent="RbqGqWquLHpoGGyO6dPe-72">
          <mxGeometry width="50" height="50" as="geometry" />
        </mxCell>
        <mxCell id="RbqGqWquLHpoGGyO6dPe-40" value="" style="shape=actor;whiteSpace=wrap;html=1;" vertex="1" parent="RbqGqWquLHpoGGyO6dPe-72">
          <mxGeometry x="10" y="5" width="30" height="40" as="geometry" />
        </mxCell>
        <mxCell id="RbqGqWquLHpoGGyO6dPe-71" value="" style="group" vertex="1" connectable="0" parent="RbqGqWquLHpoGGyO6dPe-72">
          <mxGeometry x="179.28259149157725" y="7.253521126760575" width="204.3546183302263" height="35.492957746478865" as="geometry" />
        </mxCell>
        <mxCell id="CFxwsGWaFdRzIgu9TEgN-6" value="Atualizar?" style="rounded=1;whiteSpace=wrap;html=1;fillColor=#d5e8d4;strokeColor=#82b366;" vertex="1" parent="RbqGqWquLHpoGGyO6dPe-71">
          <mxGeometry x="148.1916381988882" y="-1.4210854715202004e-14" width="56.162980131338074" height="35.49295774647888" as="geometry" />
        </mxCell>
        <mxCell id="CFxwsGWaFdRzIgu9TEgN-7" value="Apagar?" style="rounded=1;whiteSpace=wrap;html=1;fillColor=#d5e8d4;strokeColor=#82b366;" vertex="1" parent="RbqGqWquLHpoGGyO6dPe-71">
          <mxGeometry x="72.27284593809304" y="-1.4210854715202004e-14" width="56.162980131338074" height="35.49295774647888" as="geometry" />
        </mxCell>
        <mxCell id="CFxwsGWaFdRzIgu9TEgN-8" value="Entrar" style="rounded=1;whiteSpace=wrap;html=1;fillColor=#d5e8d4;strokeColor=#82b366;" vertex="1" parent="RbqGqWquLHpoGGyO6dPe-71">
          <mxGeometry y="-1.4210854715202004e-14" width="56.162980131338074" height="35.49295774647888" as="geometry" />
        </mxCell>
        <mxCell id="RbqGqWquLHpoGGyO6dPe-73" value="" style="group" vertex="1" connectable="0" parent="1">
          <mxGeometry x="460" y="-639.9961971830986" width="383.6372098218035" height="50" as="geometry" />
        </mxCell>
        <mxCell id="RbqGqWquLHpoGGyO6dPe-74" value="Nome do cliente" style="text;html=1;align=center;verticalAlign=middle;whiteSpace=wrap;rounded=0;" vertex="1" parent="RbqGqWquLHpoGGyO6dPe-73">
          <mxGeometry x="57.54865806754998" y="7.253521126760575" width="118.23785290808014" height="35.49295774647888" as="geometry" />
        </mxCell>
        <mxCell id="RbqGqWquLHpoGGyO6dPe-75" value="" style="ellipse;whiteSpace=wrap;html=1;aspect=fixed;" vertex="1" parent="RbqGqWquLHpoGGyO6dPe-73">
          <mxGeometry width="50" height="50" as="geometry" />
        </mxCell>
        <mxCell id="RbqGqWquLHpoGGyO6dPe-76" value="" style="shape=actor;whiteSpace=wrap;html=1;" vertex="1" parent="RbqGqWquLHpoGGyO6dPe-73">
          <mxGeometry x="10" y="5" width="30" height="40" as="geometry" />
        </mxCell>
        <mxCell id="RbqGqWquLHpoGGyO6dPe-77" value="" style="group" vertex="1" connectable="0" parent="RbqGqWquLHpoGGyO6dPe-73">
          <mxGeometry x="179.28259149157725" y="7.253521126760575" width="204.3546183302263" height="35.492957746478865" as="geometry" />
        </mxCell>
        <mxCell id="RbqGqWquLHpoGGyO6dPe-78" value="Atualizar?" style="rounded=1;whiteSpace=wrap;html=1;fillColor=#d5e8d4;strokeColor=#82b366;" vertex="1" parent="RbqGqWquLHpoGGyO6dPe-77">
          <mxGeometry x="148.1916381988882" y="-1.4210854715202004e-14" width="56.162980131338074" height="35.49295774647888" as="geometry" />
        </mxCell>
        <mxCell id="RbqGqWquLHpoGGyO6dPe-79" value="Apagar?" style="rounded=1;whiteSpace=wrap;html=1;fillColor=#d5e8d4;strokeColor=#82b366;" vertex="1" parent="RbqGqWquLHpoGGyO6dPe-77">
          <mxGeometry x="72.27284593809304" y="-1.4210854715202004e-14" width="56.162980131338074" height="35.49295774647888" as="geometry" />
        </mxCell>
        <mxCell id="RbqGqWquLHpoGGyO6dPe-80" value="Entrar" style="rounded=1;whiteSpace=wrap;html=1;fillColor=#d5e8d4;strokeColor=#82b366;" vertex="1" parent="RbqGqWquLHpoGGyO6dPe-77">
          <mxGeometry y="-1.4210854715202004e-14" width="56.162980131338074" height="35.49295774647888" as="geometry" />
        </mxCell>
        <mxCell id="RbqGqWquLHpoGGyO6dPe-81" value="" style="group" vertex="1" connectable="0" parent="1">
          <mxGeometry x="460" y="-559.9961971830986" width="383.6372098218035" height="50" as="geometry" />
        </mxCell>
        <mxCell id="RbqGqWquLHpoGGyO6dPe-82" value="Nome do cliente" style="text;html=1;align=center;verticalAlign=middle;whiteSpace=wrap;rounded=0;" vertex="1" parent="RbqGqWquLHpoGGyO6dPe-81">
          <mxGeometry x="57.54865806754998" y="7.253521126760575" width="118.23785290808014" height="35.49295774647888" as="geometry" />
        </mxCell>
        <mxCell id="RbqGqWquLHpoGGyO6dPe-83" value="" style="ellipse;whiteSpace=wrap;html=1;aspect=fixed;" vertex="1" parent="RbqGqWquLHpoGGyO6dPe-81">
          <mxGeometry width="50" height="50" as="geometry" />
        </mxCell>
        <mxCell id="RbqGqWquLHpoGGyO6dPe-84" value="" style="shape=actor;whiteSpace=wrap;html=1;" vertex="1" parent="RbqGqWquLHpoGGyO6dPe-81">
          <mxGeometry x="10" y="5" width="30" height="40" as="geometry" />
        </mxCell>
        <mxCell id="RbqGqWquLHpoGGyO6dPe-85" value="" style="group" vertex="1" connectable="0" parent="RbqGqWquLHpoGGyO6dPe-81">
          <mxGeometry x="179.28259149157725" y="7.253521126760575" width="204.3546183302263" height="35.492957746478865" as="geometry" />
        </mxCell>
        <mxCell id="RbqGqWquLHpoGGyO6dPe-86" value="Atualizar?" style="rounded=1;whiteSpace=wrap;html=1;fillColor=#d5e8d4;strokeColor=#82b366;" vertex="1" parent="RbqGqWquLHpoGGyO6dPe-85">
          <mxGeometry x="148.1916381988882" y="-1.4210854715202004e-14" width="56.162980131338074" height="35.49295774647888" as="geometry" />
        </mxCell>
        <mxCell id="RbqGqWquLHpoGGyO6dPe-87" value="Apagar?" style="rounded=1;whiteSpace=wrap;html=1;fillColor=#d5e8d4;strokeColor=#82b366;" vertex="1" parent="RbqGqWquLHpoGGyO6dPe-85">
          <mxGeometry x="72.27284593809304" y="-1.4210854715202004e-14" width="56.162980131338074" height="35.49295774647888" as="geometry" />
        </mxCell>
        <mxCell id="RbqGqWquLHpoGGyO6dPe-88" value="Entrar" style="rounded=1;whiteSpace=wrap;html=1;fillColor=#d5e8d4;strokeColor=#82b366;" vertex="1" parent="RbqGqWquLHpoGGyO6dPe-85">
          <mxGeometry y="-1.4210854715202004e-14" width="56.162980131338074" height="35.49295774647888" as="geometry" />
        </mxCell>
        <mxCell id="RbqGqWquLHpoGGyO6dPe-89" value="" style="group" vertex="1" connectable="0" parent="1">
          <mxGeometry x="460" y="-479.9961971830986" width="383.6372098218035" height="50" as="geometry" />
        </mxCell>
        <mxCell id="RbqGqWquLHpoGGyO6dPe-90" value="Nome do cliente" style="text;html=1;align=center;verticalAlign=middle;whiteSpace=wrap;rounded=0;" vertex="1" parent="RbqGqWquLHpoGGyO6dPe-89">
          <mxGeometry x="57.54865806754998" y="7.253521126760575" width="118.23785290808014" height="35.49295774647888" as="geometry" />
        </mxCell>
        <mxCell id="RbqGqWquLHpoGGyO6dPe-91" value="" style="ellipse;whiteSpace=wrap;html=1;aspect=fixed;" vertex="1" parent="RbqGqWquLHpoGGyO6dPe-89">
          <mxGeometry width="50" height="50" as="geometry" />
        </mxCell>
        <mxCell id="RbqGqWquLHpoGGyO6dPe-92" value="" style="shape=actor;whiteSpace=wrap;html=1;" vertex="1" parent="RbqGqWquLHpoGGyO6dPe-89">
          <mxGeometry x="10" y="5" width="30" height="40" as="geometry" />
        </mxCell>
        <mxCell id="RbqGqWquLHpoGGyO6dPe-93" value="" style="group" vertex="1" connectable="0" parent="RbqGqWquLHpoGGyO6dPe-89">
          <mxGeometry x="179.28259149157725" y="7.253521126760575" width="204.3546183302263" height="35.492957746478865" as="geometry" />
        </mxCell>
        <mxCell id="RbqGqWquLHpoGGyO6dPe-94" value="Atualizar?" style="rounded=1;whiteSpace=wrap;html=1;fillColor=#d5e8d4;strokeColor=#82b366;" vertex="1" parent="RbqGqWquLHpoGGyO6dPe-93">
          <mxGeometry x="148.1916381988882" y="-1.4210854715202004e-14" width="56.162980131338074" height="35.49295774647888" as="geometry" />
        </mxCell>
        <mxCell id="RbqGqWquLHpoGGyO6dPe-95" value="Apagar?" style="rounded=1;whiteSpace=wrap;html=1;fillColor=#d5e8d4;strokeColor=#82b366;" vertex="1" parent="RbqGqWquLHpoGGyO6dPe-93">
          <mxGeometry x="72.27284593809304" y="-1.4210854715202004e-14" width="56.162980131338074" height="35.49295774647888" as="geometry" />
        </mxCell>
        <mxCell id="RbqGqWquLHpoGGyO6dPe-96" value="Entrar" style="rounded=1;whiteSpace=wrap;html=1;fillColor=#d5e8d4;strokeColor=#82b366;" vertex="1" parent="RbqGqWquLHpoGGyO6dPe-93">
          <mxGeometry y="-1.4210854715202004e-14" width="56.162980131338074" height="35.49295774647888" as="geometry" />
        </mxCell>
        <mxCell id="RbqGqWquLHpoGGyO6dPe-97" value="" style="group" vertex="1" connectable="0" parent="1">
          <mxGeometry x="460" y="-809.9961971830986" width="383.6372098218035" height="50" as="geometry" />
        </mxCell>
        <mxCell id="RbqGqWquLHpoGGyO6dPe-98" value="Nome do cliente" style="text;html=1;align=center;verticalAlign=middle;whiteSpace=wrap;rounded=0;" vertex="1" parent="RbqGqWquLHpoGGyO6dPe-97">
          <mxGeometry x="57.54865806754998" y="7.253521126760575" width="118.23785290808014" height="35.49295774647888" as="geometry" />
        </mxCell>
        <mxCell id="RbqGqWquLHpoGGyO6dPe-99" value="" style="ellipse;whiteSpace=wrap;html=1;aspect=fixed;" vertex="1" parent="RbqGqWquLHpoGGyO6dPe-97">
          <mxGeometry width="50" height="50" as="geometry" />
        </mxCell>
        <mxCell id="RbqGqWquLHpoGGyO6dPe-100" value="" style="shape=actor;whiteSpace=wrap;html=1;" vertex="1" parent="RbqGqWquLHpoGGyO6dPe-97">
          <mxGeometry x="10" y="5" width="30" height="40" as="geometry" />
        </mxCell>
        <mxCell id="RbqGqWquLHpoGGyO6dPe-101" value="" style="group" vertex="1" connectable="0" parent="RbqGqWquLHpoGGyO6dPe-97">
          <mxGeometry x="179.28259149157725" y="7.253521126760575" width="204.3546183302263" height="35.492957746478865" as="geometry" />
        </mxCell>
        <mxCell id="RbqGqWquLHpoGGyO6dPe-102" value="Atualizar?" style="rounded=1;whiteSpace=wrap;html=1;fillColor=#d5e8d4;strokeColor=#82b366;" vertex="1" parent="RbqGqWquLHpoGGyO6dPe-101">
          <mxGeometry x="148.1916381988882" y="-1.4210854715202004e-14" width="56.162980131338074" height="35.49295774647888" as="geometry" />
        </mxCell>
        <mxCell id="RbqGqWquLHpoGGyO6dPe-103" value="Apagar?" style="rounded=1;whiteSpace=wrap;html=1;fillColor=#d5e8d4;strokeColor=#82b366;" vertex="1" parent="RbqGqWquLHpoGGyO6dPe-101">
          <mxGeometry x="72.27284593809304" y="-1.4210854715202004e-14" width="56.162980131338074" height="35.49295774647888" as="geometry" />
        </mxCell>
        <mxCell id="RbqGqWquLHpoGGyO6dPe-104" value="Entrar" style="rounded=1;whiteSpace=wrap;html=1;fillColor=#d5e8d4;strokeColor=#82b366;" vertex="1" parent="RbqGqWquLHpoGGyO6dPe-101">
          <mxGeometry y="-1.4210854715202004e-14" width="56.162980131338074" height="35.49295774647888" as="geometry" />
        </mxCell>
        <mxCell id="RbqGqWquLHpoGGyO6dPe-105" value="" style="group" vertex="1" connectable="0" parent="1">
          <mxGeometry x="460" y="-719.9961971830986" width="383.6372098218035" height="50" as="geometry" />
        </mxCell>
        <mxCell id="RbqGqWquLHpoGGyO6dPe-106" value="Nome do cliente" style="text;html=1;align=center;verticalAlign=middle;whiteSpace=wrap;rounded=0;" vertex="1" parent="RbqGqWquLHpoGGyO6dPe-105">
          <mxGeometry x="57.54865806754998" y="7.253521126760575" width="118.23785290808014" height="35.49295774647888" as="geometry" />
        </mxCell>
        <mxCell id="RbqGqWquLHpoGGyO6dPe-107" value="" style="ellipse;whiteSpace=wrap;html=1;aspect=fixed;" vertex="1" parent="RbqGqWquLHpoGGyO6dPe-105">
          <mxGeometry width="50" height="50" as="geometry" />
        </mxCell>
        <mxCell id="RbqGqWquLHpoGGyO6dPe-108" value="" style="shape=actor;whiteSpace=wrap;html=1;" vertex="1" parent="RbqGqWquLHpoGGyO6dPe-105">
          <mxGeometry x="10" y="5" width="30" height="40" as="geometry" />
        </mxCell>
        <mxCell id="RbqGqWquLHpoGGyO6dPe-109" value="" style="group" vertex="1" connectable="0" parent="RbqGqWquLHpoGGyO6dPe-105">
          <mxGeometry x="179.28259149157725" y="7.253521126760575" width="204.3546183302263" height="35.492957746478865" as="geometry" />
        </mxCell>
        <mxCell id="RbqGqWquLHpoGGyO6dPe-110" value="Atualizar?" style="rounded=1;whiteSpace=wrap;html=1;fillColor=#d5e8d4;strokeColor=#82b366;" vertex="1" parent="RbqGqWquLHpoGGyO6dPe-109">
          <mxGeometry x="148.1916381988882" y="-1.4210854715202004e-14" width="56.162980131338074" height="35.49295774647888" as="geometry" />
        </mxCell>
        <mxCell id="RbqGqWquLHpoGGyO6dPe-111" value="Apagar?" style="rounded=1;whiteSpace=wrap;html=1;fillColor=#d5e8d4;strokeColor=#82b366;" vertex="1" parent="RbqGqWquLHpoGGyO6dPe-109">
          <mxGeometry x="72.27284593809304" y="-1.4210854715202004e-14" width="56.162980131338074" height="35.49295774647888" as="geometry" />
        </mxCell>
        <mxCell id="RbqGqWquLHpoGGyO6dPe-112" value="Entrar" style="rounded=1;whiteSpace=wrap;html=1;fillColor=#d5e8d4;strokeColor=#82b366;" vertex="1" parent="RbqGqWquLHpoGGyO6dPe-109">
          <mxGeometry y="-1.4210854715202004e-14" width="56.162980131338074" height="35.49295774647888" as="geometry" />
        </mxCell>
        <mxCell id="RbqGqWquLHpoGGyO6dPe-113" value="" style="group" vertex="1" connectable="0" parent="1">
          <mxGeometry x="460" y="-399.9961971830986" width="383.6372098218035" height="50" as="geometry" />
        </mxCell>
        <mxCell id="RbqGqWquLHpoGGyO6dPe-114" value="Nome do cliente" style="text;html=1;align=center;verticalAlign=middle;whiteSpace=wrap;rounded=0;" vertex="1" parent="RbqGqWquLHpoGGyO6dPe-113">
          <mxGeometry x="57.54865806754998" y="7.253521126760575" width="118.23785290808014" height="35.49295774647888" as="geometry" />
        </mxCell>
        <mxCell id="RbqGqWquLHpoGGyO6dPe-115" value="" style="ellipse;whiteSpace=wrap;html=1;aspect=fixed;" vertex="1" parent="RbqGqWquLHpoGGyO6dPe-113">
          <mxGeometry width="50" height="50" as="geometry" />
        </mxCell>
        <mxCell id="RbqGqWquLHpoGGyO6dPe-116" value="" style="shape=actor;whiteSpace=wrap;html=1;" vertex="1" parent="RbqGqWquLHpoGGyO6dPe-113">
          <mxGeometry x="10" y="5" width="30" height="40" as="geometry" />
        </mxCell>
        <mxCell id="RbqGqWquLHpoGGyO6dPe-117" value="" style="group" vertex="1" connectable="0" parent="RbqGqWquLHpoGGyO6dPe-113">
          <mxGeometry x="179.28259149157725" y="7.253521126760575" width="204.3546183302263" height="35.492957746478865" as="geometry" />
        </mxCell>
        <mxCell id="RbqGqWquLHpoGGyO6dPe-118" value="Atualizar?" style="rounded=1;whiteSpace=wrap;html=1;fillColor=#d5e8d4;strokeColor=#82b366;" vertex="1" parent="RbqGqWquLHpoGGyO6dPe-117">
          <mxGeometry x="148.1916381988882" y="-1.4210854715202004e-14" width="56.162980131338074" height="35.49295774647888" as="geometry" />
        </mxCell>
        <mxCell id="RbqGqWquLHpoGGyO6dPe-119" value="Apagar?" style="rounded=1;whiteSpace=wrap;html=1;fillColor=#d5e8d4;strokeColor=#82b366;" vertex="1" parent="RbqGqWquLHpoGGyO6dPe-117">
          <mxGeometry x="72.27284593809304" y="-1.4210854715202004e-14" width="56.162980131338074" height="35.49295774647888" as="geometry" />
        </mxCell>
        <mxCell id="RbqGqWquLHpoGGyO6dPe-120" value="Entrar" style="rounded=1;whiteSpace=wrap;html=1;fillColor=#d5e8d4;strokeColor=#82b366;" vertex="1" parent="RbqGqWquLHpoGGyO6dPe-117">
          <mxGeometry y="-1.4210854715202004e-14" width="56.162980131338074" height="35.49295774647888" as="geometry" />
        </mxCell>
        <mxCell id="RbqGqWquLHpoGGyO6dPe-121" value="" style="group" vertex="1" connectable="0" parent="1">
          <mxGeometry x="460" y="-319.9961971830986" width="383.6372098218035" height="50" as="geometry" />
        </mxCell>
        <mxCell id="RbqGqWquLHpoGGyO6dPe-122" value="Nome do cliente" style="text;html=1;align=center;verticalAlign=middle;whiteSpace=wrap;rounded=0;" vertex="1" parent="RbqGqWquLHpoGGyO6dPe-121">
          <mxGeometry x="57.54865806754998" y="7.253521126760575" width="118.23785290808014" height="35.49295774647888" as="geometry" />
        </mxCell>
        <mxCell id="RbqGqWquLHpoGGyO6dPe-123" value="" style="ellipse;whiteSpace=wrap;html=1;aspect=fixed;" vertex="1" parent="RbqGqWquLHpoGGyO6dPe-121">
          <mxGeometry width="50" height="50" as="geometry" />
        </mxCell>
        <mxCell id="RbqGqWquLHpoGGyO6dPe-124" value="" style="shape=actor;whiteSpace=wrap;html=1;" vertex="1" parent="RbqGqWquLHpoGGyO6dPe-121">
          <mxGeometry x="10" y="5" width="30" height="40" as="geometry" />
        </mxCell>
        <mxCell id="RbqGqWquLHpoGGyO6dPe-125" value="" style="group" vertex="1" connectable="0" parent="RbqGqWquLHpoGGyO6dPe-121">
          <mxGeometry x="179.28259149157725" y="7.253521126760575" width="204.3546183302263" height="35.492957746478865" as="geometry" />
        </mxCell>
        <mxCell id="RbqGqWquLHpoGGyO6dPe-126" value="Atualizar?" style="rounded=1;whiteSpace=wrap;html=1;fillColor=#d5e8d4;strokeColor=#82b366;" vertex="1" parent="RbqGqWquLHpoGGyO6dPe-125">
          <mxGeometry x="148.1916381988882" y="-1.4210854715202004e-14" width="56.162980131338074" height="35.49295774647888" as="geometry" />
        </mxCell>
        <mxCell id="RbqGqWquLHpoGGyO6dPe-127" value="Apagar?" style="rounded=1;whiteSpace=wrap;html=1;fillColor=#d5e8d4;strokeColor=#82b366;" vertex="1" parent="RbqGqWquLHpoGGyO6dPe-125">
          <mxGeometry x="72.27284593809304" y="-1.4210854715202004e-14" width="56.162980131338074" height="35.49295774647888" as="geometry" />
        </mxCell>
        <mxCell id="RbqGqWquLHpoGGyO6dPe-128" value="Entrar" style="rounded=1;whiteSpace=wrap;html=1;fillColor=#d5e8d4;strokeColor=#82b366;" vertex="1" parent="RbqGqWquLHpoGGyO6dPe-125">
          <mxGeometry y="-1.4210854715202004e-14" width="56.162980131338074" height="35.49295774647888" as="geometry" />
        </mxCell>
        <mxCell id="EE_h52uyC438iyJsuXbD-3" value="" style="shape=image;verticalLabelPosition=bottom;labelBackgroundColor=default;verticalAlign=top;aspect=fixed;imageAspect=0;image=https://png.pngtree.com/png-clipart/20231005/original/pngtree-iphone-mockup-with-blank-screen-on-transparent-background-png-image_13279256.png;clipPath=inset(9.67% 28% 8% 27.67%);" vertex="1" parent="1">
          <mxGeometry x="1770" y="-1060" width="570.77" height="1060" as="geometry" />
        </mxCell>
        <mxCell id="DSKGHTpD5wMzkbkziwP5-1" value="&lt;font style=&quot;font-size: 36px;&quot;&gt;Página de cadastro&lt;/font&gt;" style="text;html=1;align=center;verticalAlign=middle;whiteSpace=wrap;rounded=0;" vertex="1" parent="1">
          <mxGeometry x="1880.3899999999999" y="-947.9000000000001" width="350" height="30" as="geometry" />
        </mxCell>
        <mxCell id="DSKGHTpD5wMzkbkziwP5-2" value="Nome de usuário:" style="text;html=1;align=center;verticalAlign=middle;whiteSpace=wrap;rounded=0;" vertex="1" parent="1">
          <mxGeometry x="1840" y="-870" width="120" height="30" as="geometry" />
        </mxCell>
        <mxCell id="DSKGHTpD5wMzkbkziwP5-3" value="" style="rounded=1;whiteSpace=wrap;html=1;fillColor=#d5e8d4;strokeColor=#82b366;" vertex="1" parent="1">
          <mxGeometry x="1840" y="-840" width="420" height="50" as="geometry" />
        </mxCell>
        <mxCell id="DSKGHTpD5wMzkbkziwP5-4" value="E-mail" style="text;html=1;align=center;verticalAlign=middle;whiteSpace=wrap;rounded=0;" vertex="1" parent="1">
          <mxGeometry x="1840" y="-750" width="120" height="30" as="geometry" />
        </mxCell>
        <mxCell id="DSKGHTpD5wMzkbkziwP5-6" value="Telefone" style="text;html=1;align=center;verticalAlign=middle;whiteSpace=wrap;rounded=0;" vertex="1" parent="1">
          <mxGeometry x="1830" y="-620" width="120" height="30" as="geometry" />
        </mxCell>
        <mxCell id="DSKGHTpD5wMzkbkziwP5-8" value="Endereço" style="text;html=1;align=center;verticalAlign=middle;whiteSpace=wrap;rounded=0;" vertex="1" parent="1">
          <mxGeometry x="1830" y="-504" width="120" height="30" as="geometry" />
        </mxCell>
        <mxCell id="DSKGHTpD5wMzkbkziwP5-10" value="Ir" style="rounded=1;whiteSpace=wrap;html=1;fillColor=#d5e8d4;strokeColor=#82b366;" vertex="1" parent="1">
          <mxGeometry x="2170" y="-110" width="90" height="30" as="geometry" />
        </mxCell>
        <mxCell id="DSKGHTpD5wMzkbkziwP5-11" value="" style="rounded=1;whiteSpace=wrap;html=1;fillColor=#d5e8d4;strokeColor=#82b366;" vertex="1" parent="1">
          <mxGeometry x="1840" y="-710" width="420" height="50" as="geometry" />
        </mxCell>
        <mxCell id="DSKGHTpD5wMzkbkziwP5-12" value="" style="rounded=1;whiteSpace=wrap;html=1;fillColor=#d5e8d4;strokeColor=#82b366;" vertex="1" parent="1">
          <mxGeometry x="1840" y="-580" width="420" height="50" as="geometry" />
        </mxCell>
        <mxCell id="DSKGHTpD5wMzkbkziwP5-13" value="" style="rounded=1;whiteSpace=wrap;html=1;fillColor=#d5e8d4;strokeColor=#82b366;" vertex="1" parent="1">
          <mxGeometry x="1840" y="-460" width="420" height="50" as="geometry" />
        </mxCell>
        <mxCell id="FaB08gzDVc-RuZyQUsl5-1" value="" style="shape=image;verticalLabelPosition=bottom;labelBackgroundColor=default;verticalAlign=top;aspect=fixed;imageAspect=0;image=https://png.pngtree.com/png-clipart/20231005/original/pngtree-iphone-mockup-with-blank-screen-on-transparent-background-png-image_13279256.png;clipPath=inset(9.67% 28% 8% 27.67%);" vertex="1" parent="1">
          <mxGeometry x="2460" y="-1060" width="570.77" height="1060" as="geometry" />
        </mxCell>
        <mxCell id="p4KYx9Ay_tRQnupfqdgm-1" value="&lt;font style=&quot;font-size: 36px;&quot;&gt;Cadastro Realizado!&lt;/font&gt;" style="text;html=1;align=center;verticalAlign=middle;whiteSpace=wrap;rounded=0;" vertex="1" parent="1">
          <mxGeometry x="2540.8900000000003" y="-570" width="409" height="30" as="geometry" />
        </mxCell>
        <mxCell id="p4KYx9Ay_tRQnupfqdgm-7" value="&lt;font style=&quot;font-size: 72px;&quot;&gt;Cliente&lt;/font&gt;" style="text;html=1;align=center;verticalAlign=middle;whiteSpace=wrap;rounded=0;" vertex="1" parent="1">
          <mxGeometry x="1245" y="1120" width="930" height="110" as="geometry" />
        </mxCell>
        <mxCell id="p4KYx9Ay_tRQnupfqdgm-13" value="" style="rounded=1;whiteSpace=wrap;html=1;" vertex="1" parent="1">
          <mxGeometry x="454.3900000000001" y="60" width="490" height="1020" as="geometry" />
        </mxCell>
        <mxCell id="p4KYx9Ay_tRQnupfqdgm-15" value="" style="shape=image;verticalLabelPosition=bottom;labelBackgroundColor=default;verticalAlign=top;aspect=fixed;imageAspect=0;image=https://png.pngtree.com/png-clipart/20231005/original/pngtree-iphone-mockup-with-blank-screen-on-transparent-background-png-image_13279256.png;clipPath=inset(9.67% 28% 8% 27.67%);" vertex="1" parent="1">
          <mxGeometry x="414" y="40" width="570.77" height="1060" as="geometry" />
        </mxCell>
        <mxCell id="p4KYx9Ay_tRQnupfqdgm-22" value="Apagar?" style="rounded=1;whiteSpace=wrap;html=1;fillColor=#97D077;strokeColor=#82b366;" vertex="1" parent="1">
          <mxGeometry x="300" y="120" width="126.26" height="60" as="geometry" />
        </mxCell>
        <mxCell id="p4KYx9Ay_tRQnupfqdgm-49" value="Atualizar" style="rounded=1;whiteSpace=wrap;html=1;fillColor=#97D077;strokeColor=#82b366;" vertex="1" parent="1">
          <mxGeometry x="1893.74" y="120" width="126.26" height="60" as="geometry" />
        </mxCell>
        <mxCell id="p4KYx9Ay_tRQnupfqdgm-50" value="Entrar" style="rounded=1;whiteSpace=wrap;html=1;fillColor=#97D077;strokeColor=#82b366;" vertex="1" parent="1">
          <mxGeometry x="1080" y="120" width="126.26" height="60" as="geometry" />
        </mxCell>
        <mxCell id="p4KYx9Ay_tRQnupfqdgm-51" value="" style="group" vertex="1" connectable="0" parent="1">
          <mxGeometry x="1050" y="-1060" width="570.77" height="1060" as="geometry" />
        </mxCell>
        <mxCell id="p4KYx9Ay_tRQnupfqdgm-9" value="" style="rounded=1;whiteSpace=wrap;html=1;" vertex="1" parent="p4KYx9Ay_tRQnupfqdgm-51">
          <mxGeometry x="40" y="20" width="490" height="1020" as="geometry" />
        </mxCell>
        <mxCell id="ciSnoaR9OEVAhfBgUJw6-6" value="" style="shape=image;verticalLabelPosition=bottom;labelBackgroundColor=default;verticalAlign=top;aspect=fixed;imageAspect=0;image=https://png.pngtree.com/png-clipart/20231005/original/pngtree-iphone-mockup-with-blank-screen-on-transparent-background-png-image_13279256.png;clipPath=inset(9.67% 28% 8% 27.67%);" vertex="1" parent="p4KYx9Ay_tRQnupfqdgm-51">
          <mxGeometry width="570.77" height="1060" as="geometry" />
        </mxCell>
        <mxCell id="ciSnoaR9OEVAhfBgUJw6-7" value="procurar cliente" style="rounded=1;whiteSpace=wrap;html=1;" vertex="1" parent="p4KYx9Ay_tRQnupfqdgm-51">
          <mxGeometry x="70" y="101.04999999999995" width="391.66" height="40" as="geometry" />
        </mxCell>
        <mxCell id="ciSnoaR9OEVAhfBgUJw6-8" value="" style="shape=image;html=1;verticalLabelPosition=bottom;verticalAlign=top;imageAspect=1;aspect=fixed;image=https://images.vexels.com/media/users/3/204845/isolated/lists/31084e04c65187ba8d1ecb9880f5d29f-design-de-icone-de-traco-de-lupa.png;" vertex="1" parent="p4KYx9Ay_tRQnupfqdgm-51">
          <mxGeometry x="470.0027535647705" y="100" width="35.88519945349693" height="42.095974814605675" as="geometry" />
        </mxCell>
        <mxCell id="EE_h52uyC438iyJsuXbD-1" value="Não encontrado&amp;nbsp;" style="text;html=1;align=center;verticalAlign=middle;whiteSpace=wrap;rounded=0;" vertex="1" parent="p4KYx9Ay_tRQnupfqdgm-51">
          <mxGeometry x="175.38999999999987" y="180" width="220" height="30" as="geometry" />
        </mxCell>
        <mxCell id="EE_h52uyC438iyJsuXbD-2" value="Fazer Cadastro" style="rounded=1;whiteSpace=wrap;html=1;fillColor=#d5e8d4;strokeColor=#82b366;" vertex="1" parent="p4KYx9Ay_tRQnupfqdgm-51">
          <mxGeometry x="225.38999999999987" y="220" width="120" height="60" as="geometry" />
        </mxCell>
        <mxCell id="p4KYx9Ay_tRQnupfqdgm-67" value="" style="rounded=1;whiteSpace=wrap;html=1;" vertex="1" parent="1">
          <mxGeometry x="2070" y="60" width="490" height="1020" as="geometry" />
        </mxCell>
        <mxCell id="p4KYx9Ay_tRQnupfqdgm-68" value="" style="shape=image;verticalLabelPosition=bottom;labelBackgroundColor=default;verticalAlign=top;aspect=fixed;imageAspect=0;image=https://png.pngtree.com/png-clipart/20231005/original/pngtree-iphone-mockup-with-blank-screen-on-transparent-background-png-image_13279256.png;clipPath=inset(9.67% 28% 8% 27.67%);" vertex="1" parent="1">
          <mxGeometry x="2020" y="40" width="570.77" height="1060" as="geometry" />
        </mxCell>
        <mxCell id="p4KYx9Ay_tRQnupfqdgm-69" value="&lt;font style=&quot;font-size: 36px;&quot;&gt;Página de cadastro&lt;/font&gt;" style="text;html=1;align=center;verticalAlign=middle;whiteSpace=wrap;rounded=0;" vertex="1" parent="1">
          <mxGeometry x="2130.39" y="152.0999999999999" width="350" height="30" as="geometry" />
        </mxCell>
        <mxCell id="p4KYx9Ay_tRQnupfqdgm-70" value="Nome de usuário:" style="text;html=1;align=center;verticalAlign=middle;whiteSpace=wrap;rounded=0;" vertex="1" parent="1">
          <mxGeometry x="2090" y="230" width="120" height="30" as="geometry" />
        </mxCell>
        <mxCell id="p4KYx9Ay_tRQnupfqdgm-71" value="" style="rounded=1;whiteSpace=wrap;html=1;fillColor=#d5e8d4;strokeColor=#82b366;" vertex="1" parent="1">
          <mxGeometry x="2090" y="260" width="420" height="50" as="geometry" />
        </mxCell>
        <mxCell id="p4KYx9Ay_tRQnupfqdgm-72" value="E-mail" style="text;html=1;align=center;verticalAlign=middle;whiteSpace=wrap;rounded=0;" vertex="1" parent="1">
          <mxGeometry x="2090" y="350" width="120" height="30" as="geometry" />
        </mxCell>
        <mxCell id="p4KYx9Ay_tRQnupfqdgm-73" value="Telefone" style="text;html=1;align=center;verticalAlign=middle;whiteSpace=wrap;rounded=0;" vertex="1" parent="1">
          <mxGeometry x="2080" y="480" width="120" height="30" as="geometry" />
        </mxCell>
        <mxCell id="p4KYx9Ay_tRQnupfqdgm-74" value="Endereço" style="text;html=1;align=center;verticalAlign=middle;whiteSpace=wrap;rounded=0;" vertex="1" parent="1">
          <mxGeometry x="2080" y="596" width="120" height="30" as="geometry" />
        </mxCell>
        <mxCell id="p4KYx9Ay_tRQnupfqdgm-75" value="Ir" style="rounded=1;whiteSpace=wrap;html=1;fillColor=#d5e8d4;strokeColor=#82b366;" vertex="1" parent="1">
          <mxGeometry x="2420" y="990" width="90" height="30" as="geometry" />
        </mxCell>
        <mxCell id="p4KYx9Ay_tRQnupfqdgm-76" value="" style="rounded=1;whiteSpace=wrap;html=1;fillColor=#d5e8d4;strokeColor=#82b366;" vertex="1" parent="1">
          <mxGeometry x="2090" y="390" width="420" height="50" as="geometry" />
        </mxCell>
        <mxCell id="p4KYx9Ay_tRQnupfqdgm-77" value="" style="rounded=1;whiteSpace=wrap;html=1;fillColor=#d5e8d4;strokeColor=#82b366;" vertex="1" parent="1">
          <mxGeometry x="2090" y="520" width="420" height="50" as="geometry" />
        </mxCell>
        <mxCell id="p4KYx9Ay_tRQnupfqdgm-78" value="" style="rounded=1;whiteSpace=wrap;html=1;fillColor=#d5e8d4;strokeColor=#82b366;" vertex="1" parent="1">
          <mxGeometry x="2090" y="640" width="420" height="50" as="geometry" />
        </mxCell>
        <mxCell id="p4KYx9Ay_tRQnupfqdgm-54" value="" style="rounded=1;whiteSpace=wrap;html=1;" vertex="1" parent="1">
          <mxGeometry x="1250" y="75" width="490" height="1020" as="geometry" />
        </mxCell>
        <mxCell id="p4KYx9Ay_tRQnupfqdgm-55" value="" style="shape=image;verticalLabelPosition=bottom;labelBackgroundColor=default;verticalAlign=top;aspect=fixed;imageAspect=0;image=https://png.pngtree.com/png-clipart/20231005/original/pngtree-iphone-mockup-with-blank-screen-on-transparent-background-png-image_13279256.png;clipPath=inset(9.67% 28% 8% 27.67%);" vertex="1" parent="1">
          <mxGeometry x="1210" y="55" width="570.77" height="1060" as="geometry" />
        </mxCell>
        <mxCell id="p4KYx9Ay_tRQnupfqdgm-80" value="&lt;font style=&quot;font-size: 36px;&quot;&gt;Dados do cliente&lt;/font&gt;" style="text;html=1;align=center;verticalAlign=middle;whiteSpace=wrap;rounded=0;" vertex="1" parent="1">
          <mxGeometry x="1320.39" y="180" width="350" height="30" as="geometry" />
        </mxCell>
        <mxCell id="p4KYx9Ay_tRQnupfqdgm-89" value="Nome de usuário:" style="text;html=1;align=center;verticalAlign=middle;whiteSpace=wrap;rounded=0;" vertex="1" parent="1">
          <mxGeometry x="1280" y="303.95000000000005" width="120" height="30" as="geometry" />
        </mxCell>
        <mxCell id="p4KYx9Ay_tRQnupfqdgm-90" value="" style="rounded=1;whiteSpace=wrap;html=1;fillColor=#d5e8d4;strokeColor=#82b366;" vertex="1" parent="1">
          <mxGeometry x="1280" y="333.95000000000005" width="420" height="50" as="geometry" />
        </mxCell>
        <mxCell id="p4KYx9Ay_tRQnupfqdgm-91" value="E-mail" style="text;html=1;align=center;verticalAlign=middle;whiteSpace=wrap;rounded=0;" vertex="1" parent="1">
          <mxGeometry x="1280" y="423.95000000000005" width="120" height="30" as="geometry" />
        </mxCell>
        <mxCell id="p4KYx9Ay_tRQnupfqdgm-92" value="Telefone" style="text;html=1;align=center;verticalAlign=middle;whiteSpace=wrap;rounded=0;" vertex="1" parent="1">
          <mxGeometry x="1270" y="553.95" width="120" height="30" as="geometry" />
        </mxCell>
        <mxCell id="p4KYx9Ay_tRQnupfqdgm-93" value="Endereço" style="text;html=1;align=center;verticalAlign=middle;whiteSpace=wrap;rounded=0;" vertex="1" parent="1">
          <mxGeometry x="1270" y="669.95" width="120" height="30" as="geometry" />
        </mxCell>
        <mxCell id="p4KYx9Ay_tRQnupfqdgm-94" value="" style="rounded=1;whiteSpace=wrap;html=1;fillColor=#d5e8d4;strokeColor=#82b366;" vertex="1" parent="1">
          <mxGeometry x="1280" y="463.95000000000005" width="420" height="50" as="geometry" />
        </mxCell>
        <mxCell id="p4KYx9Ay_tRQnupfqdgm-95" value="" style="rounded=1;whiteSpace=wrap;html=1;fillColor=#d5e8d4;strokeColor=#82b366;" vertex="1" parent="1">
          <mxGeometry x="1280" y="593.95" width="420" height="50" as="geometry" />
        </mxCell>
        <mxCell id="p4KYx9Ay_tRQnupfqdgm-96" value="" style="rounded=1;whiteSpace=wrap;html=1;fillColor=#d5e8d4;strokeColor=#82b366;" vertex="1" parent="1">
          <mxGeometry x="1280" y="713.95" width="420" height="50" as="geometry" />
        </mxCell>
        <mxCell id="p4KYx9Ay_tRQnupfqdgm-97" value="&lt;font style=&quot;font-size: 36px;&quot;&gt;Você deseja apagar esse cliente?&lt;/font&gt;" style="text;html=1;align=center;verticalAlign=middle;whiteSpace=wrap;rounded=0;" vertex="1" parent="1">
          <mxGeometry x="524.39" y="160" width="350" height="110" as="geometry" />
        </mxCell>
        <mxCell id="p4KYx9Ay_tRQnupfqdgm-98" value="Sim" style="rounded=1;whiteSpace=wrap;html=1;fillColor=#d5e8d4;strokeColor=#82b366;" vertex="1" parent="1">
          <mxGeometry x="524.39" y="310" width="126.26" height="60" as="geometry" />
        </mxCell>
        <mxCell id="p4KYx9Ay_tRQnupfqdgm-99" value="Não" style="rounded=1;whiteSpace=wrap;html=1;fillColor=#f8cecc;strokeColor=#b85450;" vertex="1" parent="1">
          <mxGeometry x="733.74" y="310" width="126.26" height="60" as="geometry" />
        </mxCell>
        <mxCell id="xBpnV0RaYjXp5-zyp5ir-1" value="" style="shape=ext;double=1;rounded=0;whiteSpace=wrap;html=1;fillColor=#FF99CC;strokeColor=#FF66B3;strokeWidth=6;" vertex="1" parent="1">
          <mxGeometry x="230" y="1410" width="2940" height="2360" as="geometry" />
        </mxCell>
        <mxCell id="xBpnV0RaYjXp5-zyp5ir-2" value="" style="rounded=1;whiteSpace=wrap;html=1;" vertex="1" parent="1">
          <mxGeometry x="2510" y="1460" width="490" height="1020" as="geometry" />
        </mxCell>
        <mxCell id="xBpnV0RaYjXp5-zyp5ir-3" value="" style="rounded=1;whiteSpace=wrap;html=1;" vertex="1" parent="1">
          <mxGeometry x="1820" y="1460" width="490" height="1020" as="geometry" />
        </mxCell>
        <mxCell id="xBpnV0RaYjXp5-zyp5ir-4" value="" style="rounded=1;whiteSpace=wrap;html=1;" vertex="1" parent="1">
          <mxGeometry x="430.39" y="1460" width="490" height="1020" as="geometry" />
        </mxCell>
        <mxCell id="xBpnV0RaYjXp5-zyp5ir-5" value="" style="shape=image;verticalLabelPosition=bottom;labelBackgroundColor=default;verticalAlign=top;aspect=fixed;imageAspect=0;image=https://png.pngtree.com/png-clipart/20231005/original/pngtree-iphone-mockup-with-blank-screen-on-transparent-background-png-image_13279256.png;clipPath=inset(9.67% 28% 8% 27.67%);" vertex="1" parent="1">
          <mxGeometry x="390" y="1440" width="570.77" height="1060" as="geometry" />
        </mxCell>
        <mxCell id="xBpnV0RaYjXp5-zyp5ir-6" value="Procurar Fornecedor" style="rounded=1;whiteSpace=wrap;html=1;" vertex="1" parent="1">
          <mxGeometry x="460" y="1541.05" width="391.66" height="40" as="geometry" />
        </mxCell>
        <mxCell id="xBpnV0RaYjXp5-zyp5ir-7" value="" style="shape=image;html=1;verticalLabelPosition=bottom;verticalAlign=top;imageAspect=1;aspect=fixed;image=https://images.vexels.com/media/users/3/204845/isolated/lists/31084e04c65187ba8d1ecb9880f5d29f-design-de-icone-de-traco-de-lupa.png;" vertex="1" parent="1">
          <mxGeometry x="860.0027535647705" y="1540" width="35.88519945349693" height="42.095974814605675" as="geometry" />
        </mxCell>
        <mxCell id="xBpnV0RaYjXp5-zyp5ir-40" value="" style="group" vertex="1" connectable="0" parent="1">
          <mxGeometry x="460" y="1610.0038028169015" width="396.1672098218035" height="50" as="geometry" />
        </mxCell>
        <mxCell id="xBpnV0RaYjXp5-zyp5ir-41" value="Nome do Fornecedor" style="text;html=1;align=center;verticalAlign=middle;whiteSpace=wrap;rounded=0;" vertex="1" parent="xBpnV0RaYjXp5-zyp5ir-40">
          <mxGeometry x="57.54865806754998" y="7.253521126760575" width="118.23785290808014" height="35.49295774647888" as="geometry" />
        </mxCell>
        <mxCell id="xBpnV0RaYjXp5-zyp5ir-42" value="" style="ellipse;whiteSpace=wrap;html=1;aspect=fixed;" vertex="1" parent="xBpnV0RaYjXp5-zyp5ir-40">
          <mxGeometry width="50" height="50" as="geometry" />
        </mxCell>
        <mxCell id="xBpnV0RaYjXp5-zyp5ir-43" value="" style="shape=actor;whiteSpace=wrap;html=1;" vertex="1" parent="xBpnV0RaYjXp5-zyp5ir-40">
          <mxGeometry x="10" y="5" width="30" height="40" as="geometry" />
        </mxCell>
        <mxCell id="xBpnV0RaYjXp5-zyp5ir-47" value="Entrar" style="rounded=1;whiteSpace=wrap;html=1;fillColor=#FFE8FF;strokeColor=#FFE8FF;fontColor=#262626;" vertex="1" parent="xBpnV0RaYjXp5-zyp5ir-40">
          <mxGeometry x="190.00259149157728" y="7.253521126760461" width="56.162980131338074" height="35.49295774647888" as="geometry" />
        </mxCell>
        <mxCell id="xBpnV0RaYjXp5-zyp5ir-46" value="Apagar?" style="rounded=1;whiteSpace=wrap;html=1;fillColor=#FFE8FF;strokeColor=#FFE8FF;fontColor=#262626;" vertex="1" parent="xBpnV0RaYjXp5-zyp5ir-40">
          <mxGeometry x="269.99543742967023" y="9.503521126760461" width="56.162980131338074" height="35.49295774647888" as="geometry" />
        </mxCell>
        <mxCell id="xBpnV0RaYjXp5-zyp5ir-45" value="Atualizar?" style="rounded=1;whiteSpace=wrap;html=1;fillColor=#FFE8FF;strokeColor=#FFE8FF;fontColor=#262626;" vertex="1" parent="xBpnV0RaYjXp5-zyp5ir-40">
          <mxGeometry x="340.0042296904654" y="9.503521126760461" width="56.162980131338074" height="35.49295774647888" as="geometry" />
        </mxCell>
        <mxCell id="xBpnV0RaYjXp5-zyp5ir-72" value="" style="shape=image;verticalLabelPosition=bottom;labelBackgroundColor=default;verticalAlign=top;aspect=fixed;imageAspect=0;image=https://png.pngtree.com/png-clipart/20231005/original/pngtree-iphone-mockup-with-blank-screen-on-transparent-background-png-image_13279256.png;clipPath=inset(9.67% 28% 8% 27.67%);" vertex="1" parent="1">
          <mxGeometry x="1770" y="1440" width="570.77" height="1060" as="geometry" />
        </mxCell>
        <mxCell id="xBpnV0RaYjXp5-zyp5ir-73" value="&lt;font style=&quot;font-size: 36px;&quot;&gt;Página de cadastro&lt;/font&gt;" style="text;html=1;align=center;verticalAlign=middle;whiteSpace=wrap;rounded=0;" vertex="1" parent="1">
          <mxGeometry x="1880.3899999999999" y="1552.1" width="350" height="30" as="geometry" />
        </mxCell>
        <mxCell id="xBpnV0RaYjXp5-zyp5ir-74" value="Nome do Fornecedor:" style="text;html=1;align=center;verticalAlign=middle;whiteSpace=wrap;rounded=0;" vertex="1" parent="1">
          <mxGeometry x="1850" y="1630" width="120" height="30" as="geometry" />
        </mxCell>
        <mxCell id="xBpnV0RaYjXp5-zyp5ir-75" value="" style="rounded=1;whiteSpace=wrap;html=1;fillColor=#FFE8FF;strokeColor=#FFE8FF;" vertex="1" parent="1">
          <mxGeometry x="1840" y="1660" width="420" height="50" as="geometry" />
        </mxCell>
        <mxCell id="xBpnV0RaYjXp5-zyp5ir-76" value="E-mail" style="text;html=1;align=center;verticalAlign=middle;whiteSpace=wrap;rounded=0;" vertex="1" parent="1">
          <mxGeometry x="1840" y="1750" width="120" height="30" as="geometry" />
        </mxCell>
        <mxCell id="xBpnV0RaYjXp5-zyp5ir-77" value="Telefone" style="text;html=1;align=center;verticalAlign=middle;whiteSpace=wrap;rounded=0;" vertex="1" parent="1">
          <mxGeometry x="1830" y="1880" width="120" height="30" as="geometry" />
        </mxCell>
        <mxCell id="xBpnV0RaYjXp5-zyp5ir-78" value="Endereço" style="text;html=1;align=center;verticalAlign=middle;whiteSpace=wrap;rounded=0;" vertex="1" parent="1">
          <mxGeometry x="1830" y="1996" width="120" height="30" as="geometry" />
        </mxCell>
        <mxCell id="xBpnV0RaYjXp5-zyp5ir-79" value="Ir" style="rounded=1;whiteSpace=wrap;html=1;fillColor=#FFE8FF;strokeColor=#FFE8FF;" vertex="1" parent="1">
          <mxGeometry x="2170" y="2390" width="90" height="30" as="geometry" />
        </mxCell>
        <mxCell id="xBpnV0RaYjXp5-zyp5ir-80" value="" style="rounded=1;whiteSpace=wrap;html=1;fillColor=#FFE8FF;strokeColor=#FFE8FF;" vertex="1" parent="1">
          <mxGeometry x="1840" y="1790" width="420" height="50" as="geometry" />
        </mxCell>
        <mxCell id="xBpnV0RaYjXp5-zyp5ir-81" value="" style="rounded=1;whiteSpace=wrap;html=1;fillColor=#FFE8FF;strokeColor=#FFE8FF;" vertex="1" parent="1">
          <mxGeometry x="1840" y="1920" width="420" height="50" as="geometry" />
        </mxCell>
        <mxCell id="xBpnV0RaYjXp5-zyp5ir-82" value="" style="rounded=1;whiteSpace=wrap;html=1;fillColor=#FFE8FF;strokeColor=#FFE8FF;" vertex="1" parent="1">
          <mxGeometry x="1840" y="2040" width="420" height="50" as="geometry" />
        </mxCell>
        <mxCell id="xBpnV0RaYjXp5-zyp5ir-83" value="" style="shape=image;verticalLabelPosition=bottom;labelBackgroundColor=default;verticalAlign=top;aspect=fixed;imageAspect=0;image=https://png.pngtree.com/png-clipart/20231005/original/pngtree-iphone-mockup-with-blank-screen-on-transparent-background-png-image_13279256.png;clipPath=inset(9.67% 28% 8% 27.67%);" vertex="1" parent="1">
          <mxGeometry x="2460" y="1440" width="570.77" height="1060" as="geometry" />
        </mxCell>
        <mxCell id="xBpnV0RaYjXp5-zyp5ir-84" value="&lt;font style=&quot;font-size: 36px;&quot;&gt;Cadastro Realizado!&lt;/font&gt;" style="text;html=1;align=center;verticalAlign=middle;whiteSpace=wrap;rounded=0;" vertex="1" parent="1">
          <mxGeometry x="2540.8900000000003" y="1930" width="409" height="30" as="geometry" />
        </mxCell>
        <mxCell id="xBpnV0RaYjXp5-zyp5ir-85" value="&lt;font style=&quot;font-size: 72px;&quot;&gt;Fornecedores&lt;/font&gt;" style="text;html=1;align=center;verticalAlign=middle;whiteSpace=wrap;rounded=0;" vertex="1" parent="1">
          <mxGeometry x="1245" y="3620" width="930" height="110" as="geometry" />
        </mxCell>
        <mxCell id="xBpnV0RaYjXp5-zyp5ir-86" value="" style="rounded=1;whiteSpace=wrap;html=1;" vertex="1" parent="1">
          <mxGeometry x="454.3900000000001" y="2560" width="490" height="1020" as="geometry" />
        </mxCell>
        <mxCell id="xBpnV0RaYjXp5-zyp5ir-87" value="" style="shape=image;verticalLabelPosition=bottom;labelBackgroundColor=default;verticalAlign=top;aspect=fixed;imageAspect=0;image=https://png.pngtree.com/png-clipart/20231005/original/pngtree-iphone-mockup-with-blank-screen-on-transparent-background-png-image_13279256.png;clipPath=inset(9.67% 28% 8% 27.67%);" vertex="1" parent="1">
          <mxGeometry x="414" y="2540" width="570.77" height="1060" as="geometry" />
        </mxCell>
        <mxCell id="xBpnV0RaYjXp5-zyp5ir-88" value="Apagar?" style="rounded=1;whiteSpace=wrap;html=1;fillColor=#FFE8FF;strokeColor=#FFE8FF;" vertex="1" parent="1">
          <mxGeometry x="300" y="2620" width="126.26" height="60" as="geometry" />
        </mxCell>
        <mxCell id="xBpnV0RaYjXp5-zyp5ir-89" value="Atualizar" style="rounded=1;whiteSpace=wrap;html=1;fillColor=#FFE8FF;strokeColor=#FFE8FF;" vertex="1" parent="1">
          <mxGeometry x="1893.74" y="2620" width="126.26" height="60" as="geometry" />
        </mxCell>
        <mxCell id="xBpnV0RaYjXp5-zyp5ir-90" value="Entrar" style="rounded=1;whiteSpace=wrap;html=1;fillColor=#FFE8FF;strokeColor=#FFE8FF;" vertex="1" parent="1">
          <mxGeometry x="1080" y="2620" width="126.26" height="60" as="geometry" />
        </mxCell>
        <mxCell id="xBpnV0RaYjXp5-zyp5ir-91" value="" style="group" vertex="1" connectable="0" parent="1">
          <mxGeometry x="1050" y="1440" width="570.77" height="1060" as="geometry" />
        </mxCell>
        <mxCell id="xBpnV0RaYjXp5-zyp5ir-92" value="" style="rounded=1;whiteSpace=wrap;html=1;" vertex="1" parent="xBpnV0RaYjXp5-zyp5ir-91">
          <mxGeometry x="40" y="20" width="490" height="1020" as="geometry" />
        </mxCell>
        <mxCell id="xBpnV0RaYjXp5-zyp5ir-93" value="" style="shape=image;verticalLabelPosition=bottom;labelBackgroundColor=default;verticalAlign=top;aspect=fixed;imageAspect=0;image=https://png.pngtree.com/png-clipart/20231005/original/pngtree-iphone-mockup-with-blank-screen-on-transparent-background-png-image_13279256.png;clipPath=inset(9.67% 28% 8% 27.67%);" vertex="1" parent="xBpnV0RaYjXp5-zyp5ir-91">
          <mxGeometry width="570.77" height="1060" as="geometry" />
        </mxCell>
        <mxCell id="xBpnV0RaYjXp5-zyp5ir-94" value="Procurar Fornecedor" style="rounded=1;whiteSpace=wrap;html=1;" vertex="1" parent="xBpnV0RaYjXp5-zyp5ir-91">
          <mxGeometry x="70" y="101.04999999999995" width="391.66" height="40" as="geometry" />
        </mxCell>
        <mxCell id="xBpnV0RaYjXp5-zyp5ir-95" value="" style="shape=image;html=1;verticalLabelPosition=bottom;verticalAlign=top;imageAspect=1;aspect=fixed;image=https://images.vexels.com/media/users/3/204845/isolated/lists/31084e04c65187ba8d1ecb9880f5d29f-design-de-icone-de-traco-de-lupa.png;" vertex="1" parent="xBpnV0RaYjXp5-zyp5ir-91">
          <mxGeometry x="470.0027535647705" y="100" width="35.88519945349693" height="42.095974814605675" as="geometry" />
        </mxCell>
        <mxCell id="xBpnV0RaYjXp5-zyp5ir-96" value="Não encontrado&amp;nbsp;" style="text;html=1;align=center;verticalAlign=middle;whiteSpace=wrap;rounded=0;" vertex="1" parent="xBpnV0RaYjXp5-zyp5ir-91">
          <mxGeometry x="175.38999999999987" y="180" width="220" height="30" as="geometry" />
        </mxCell>
        <mxCell id="xBpnV0RaYjXp5-zyp5ir-97" value="Fazer Cadastro" style="rounded=1;whiteSpace=wrap;html=1;fillColor=#FFE8FF;strokeColor=#FFE8FF;" vertex="1" parent="xBpnV0RaYjXp5-zyp5ir-91">
          <mxGeometry x="225.38999999999987" y="220" width="120" height="60" as="geometry" />
        </mxCell>
        <mxCell id="xBpnV0RaYjXp5-zyp5ir-98" value="" style="rounded=1;whiteSpace=wrap;html=1;" vertex="1" parent="1">
          <mxGeometry x="2070" y="2560" width="490" height="1020" as="geometry" />
        </mxCell>
        <mxCell id="xBpnV0RaYjXp5-zyp5ir-99" value="" style="shape=image;verticalLabelPosition=bottom;labelBackgroundColor=default;verticalAlign=top;aspect=fixed;imageAspect=0;image=https://png.pngtree.com/png-clipart/20231005/original/pngtree-iphone-mockup-with-blank-screen-on-transparent-background-png-image_13279256.png;clipPath=inset(9.67% 28% 8% 27.67%);" vertex="1" parent="1">
          <mxGeometry x="2020" y="2540" width="570.77" height="1060" as="geometry" />
        </mxCell>
        <mxCell id="xBpnV0RaYjXp5-zyp5ir-100" value="&lt;font style=&quot;font-size: 36px;&quot;&gt;Página de cadastro&lt;/font&gt;" style="text;html=1;align=center;verticalAlign=middle;whiteSpace=wrap;rounded=0;" vertex="1" parent="1">
          <mxGeometry x="2130.39" y="2652.1" width="350" height="30" as="geometry" />
        </mxCell>
        <mxCell id="xBpnV0RaYjXp5-zyp5ir-101" value="Nome de usuário:" style="text;html=1;align=center;verticalAlign=middle;whiteSpace=wrap;rounded=0;" vertex="1" parent="1">
          <mxGeometry x="2090" y="2730" width="120" height="30" as="geometry" />
        </mxCell>
        <mxCell id="xBpnV0RaYjXp5-zyp5ir-102" value="" style="rounded=1;whiteSpace=wrap;html=1;fillColor=#FFE8FF;strokeColor=#FFE8FF;" vertex="1" parent="1">
          <mxGeometry x="2090" y="2760" width="420" height="50" as="geometry" />
        </mxCell>
        <mxCell id="xBpnV0RaYjXp5-zyp5ir-103" value="E-mail" style="text;html=1;align=center;verticalAlign=middle;whiteSpace=wrap;rounded=0;fillColor=#FFFFFF;strokeColor=#FFFFFF;" vertex="1" parent="1">
          <mxGeometry x="2090" y="2850" width="120" height="30" as="geometry" />
        </mxCell>
        <mxCell id="xBpnV0RaYjXp5-zyp5ir-104" value="Telefone" style="text;html=1;align=center;verticalAlign=middle;whiteSpace=wrap;rounded=0;fillColor=#FFFFFF;strokeColor=#FFFFFF;" vertex="1" parent="1">
          <mxGeometry x="2080" y="2980" width="120" height="30" as="geometry" />
        </mxCell>
        <mxCell id="xBpnV0RaYjXp5-zyp5ir-105" value="Endereço" style="text;html=1;align=center;verticalAlign=middle;whiteSpace=wrap;rounded=0;fillColor=#FFFFFF;strokeColor=#FFFFFF;" vertex="1" parent="1">
          <mxGeometry x="2080" y="3096" width="120" height="30" as="geometry" />
        </mxCell>
        <mxCell id="xBpnV0RaYjXp5-zyp5ir-106" value="Ir" style="rounded=1;whiteSpace=wrap;html=1;fillColor=#FFE8FF;strokeColor=#FFE8FF;" vertex="1" parent="1">
          <mxGeometry x="2420" y="3490" width="90" height="30" as="geometry" />
        </mxCell>
        <mxCell id="xBpnV0RaYjXp5-zyp5ir-107" value="" style="rounded=1;whiteSpace=wrap;html=1;fillColor=#FFE8FF;strokeColor=#FFE8FF;" vertex="1" parent="1">
          <mxGeometry x="2090" y="2890" width="420" height="50" as="geometry" />
        </mxCell>
        <mxCell id="xBpnV0RaYjXp5-zyp5ir-108" value="" style="rounded=1;whiteSpace=wrap;html=1;fillColor=#FFE8FF;strokeColor=#FFE8FF;" vertex="1" parent="1">
          <mxGeometry x="2090" y="3020" width="420" height="50" as="geometry" />
        </mxCell>
        <mxCell id="xBpnV0RaYjXp5-zyp5ir-109" value="" style="rounded=1;whiteSpace=wrap;html=1;fillColor=#FFE8FF;strokeColor=#FFE8FF;" vertex="1" parent="1">
          <mxGeometry x="2090" y="3140" width="420" height="50" as="geometry" />
        </mxCell>
        <mxCell id="xBpnV0RaYjXp5-zyp5ir-110" value="" style="rounded=1;whiteSpace=wrap;html=1;" vertex="1" parent="1">
          <mxGeometry x="1250" y="2575" width="490" height="1020" as="geometry" />
        </mxCell>
        <mxCell id="xBpnV0RaYjXp5-zyp5ir-111" value="" style="shape=image;verticalLabelPosition=bottom;labelBackgroundColor=default;verticalAlign=top;aspect=fixed;imageAspect=0;image=https://png.pngtree.com/png-clipart/20231005/original/pngtree-iphone-mockup-with-blank-screen-on-transparent-background-png-image_13279256.png;clipPath=inset(9.67% 28% 8% 27.67%);" vertex="1" parent="1">
          <mxGeometry x="1210" y="2555" width="570.77" height="1060" as="geometry" />
        </mxCell>
        <mxCell id="xBpnV0RaYjXp5-zyp5ir-112" value="&lt;font style=&quot;font-size: 36px;&quot;&gt;Dados do cliente&lt;/font&gt;" style="text;html=1;align=center;verticalAlign=middle;whiteSpace=wrap;rounded=0;" vertex="1" parent="1">
          <mxGeometry x="1320.39" y="2680" width="350" height="30" as="geometry" />
        </mxCell>
        <mxCell id="xBpnV0RaYjXp5-zyp5ir-113" value="Nome de usuário:" style="text;html=1;align=center;verticalAlign=middle;whiteSpace=wrap;rounded=0;" vertex="1" parent="1">
          <mxGeometry x="1280" y="2803.95" width="120" height="30" as="geometry" />
        </mxCell>
        <mxCell id="xBpnV0RaYjXp5-zyp5ir-114" value="" style="rounded=1;whiteSpace=wrap;html=1;fillColor=#FFE8FF;strokeColor=#FFE8FF;" vertex="1" parent="1">
          <mxGeometry x="1280" y="2833.95" width="420" height="50" as="geometry" />
        </mxCell>
        <mxCell id="xBpnV0RaYjXp5-zyp5ir-115" value="E-mail" style="text;html=1;align=center;verticalAlign=middle;whiteSpace=wrap;rounded=0;fillColor=#FFFFFF;strokeColor=#FFFFFF;" vertex="1" parent="1">
          <mxGeometry x="1280" y="2923.95" width="120" height="30" as="geometry" />
        </mxCell>
        <mxCell id="xBpnV0RaYjXp5-zyp5ir-116" value="Telefone" style="text;html=1;align=center;verticalAlign=middle;whiteSpace=wrap;rounded=0;fillColor=#FFFFFF;strokeColor=#FFFFFF;" vertex="1" parent="1">
          <mxGeometry x="1270" y="3053.95" width="120" height="30" as="geometry" />
        </mxCell>
        <mxCell id="xBpnV0RaYjXp5-zyp5ir-117" value="Endereço" style="text;html=1;align=center;verticalAlign=middle;whiteSpace=wrap;rounded=0;fillColor=#FFFFFF;strokeColor=#FFFFFF;" vertex="1" parent="1">
          <mxGeometry x="1270" y="3169.95" width="120" height="30" as="geometry" />
        </mxCell>
        <mxCell id="xBpnV0RaYjXp5-zyp5ir-118" value="" style="rounded=1;whiteSpace=wrap;html=1;fillColor=#FFE8FF;strokeColor=#FFE8FF;" vertex="1" parent="1">
          <mxGeometry x="1280" y="2963.95" width="420" height="50" as="geometry" />
        </mxCell>
        <mxCell id="xBpnV0RaYjXp5-zyp5ir-119" value="" style="rounded=1;whiteSpace=wrap;html=1;fillColor=#FFE8FF;strokeColor=#FFE8FF;" vertex="1" parent="1">
          <mxGeometry x="1280" y="3093.95" width="420" height="50" as="geometry" />
        </mxCell>
        <mxCell id="xBpnV0RaYjXp5-zyp5ir-120" value="" style="rounded=1;whiteSpace=wrap;html=1;fillColor=#FFE8FF;strokeColor=#FFE8FF;" vertex="1" parent="1">
          <mxGeometry x="1280" y="3213.95" width="420" height="50" as="geometry" />
        </mxCell>
        <mxCell id="xBpnV0RaYjXp5-zyp5ir-121" value="&lt;font style=&quot;font-size: 36px;&quot;&gt;Você deseja apagar esse cliente?&lt;/font&gt;" style="text;html=1;align=center;verticalAlign=middle;whiteSpace=wrap;rounded=0;" vertex="1" parent="1">
          <mxGeometry x="524.39" y="2660" width="350" height="110" as="geometry" />
        </mxCell>
        <mxCell id="xBpnV0RaYjXp5-zyp5ir-122" value="Sim" style="rounded=1;whiteSpace=wrap;html=1;fillColor=#d5e8d4;strokeColor=#82b366;" vertex="1" parent="1">
          <mxGeometry x="524.39" y="2810" width="126.26" height="60" as="geometry" />
        </mxCell>
        <mxCell id="xBpnV0RaYjXp5-zyp5ir-123" value="Não" style="rounded=1;whiteSpace=wrap;html=1;fillColor=#f8cecc;strokeColor=#b85450;" vertex="1" parent="1">
          <mxGeometry x="733.74" y="2810" width="126.26" height="60" as="geometry" />
        </mxCell>
        <mxCell id="xBpnV0RaYjXp5-zyp5ir-159" value="" style="group" vertex="1" connectable="0" parent="1">
          <mxGeometry x="460" y="1690.0038028169015" width="396.1672098218035" height="50" as="geometry" />
        </mxCell>
        <mxCell id="xBpnV0RaYjXp5-zyp5ir-160" value="Nome do Fornecedor" style="text;html=1;align=center;verticalAlign=middle;whiteSpace=wrap;rounded=0;" vertex="1" parent="xBpnV0RaYjXp5-zyp5ir-159">
          <mxGeometry x="57.54865806754998" y="7.253521126760575" width="118.23785290808014" height="35.49295774647888" as="geometry" />
        </mxCell>
        <mxCell id="xBpnV0RaYjXp5-zyp5ir-161" value="" style="ellipse;whiteSpace=wrap;html=1;aspect=fixed;" vertex="1" parent="xBpnV0RaYjXp5-zyp5ir-159">
          <mxGeometry width="50" height="50" as="geometry" />
        </mxCell>
        <mxCell id="xBpnV0RaYjXp5-zyp5ir-162" value="" style="shape=actor;whiteSpace=wrap;html=1;" vertex="1" parent="xBpnV0RaYjXp5-zyp5ir-159">
          <mxGeometry x="10" y="5" width="30" height="40" as="geometry" />
        </mxCell>
        <mxCell id="xBpnV0RaYjXp5-zyp5ir-163" value="Entrar" style="rounded=1;whiteSpace=wrap;html=1;fillColor=#FFE8FF;strokeColor=#FFE8FF;fontColor=#262626;" vertex="1" parent="xBpnV0RaYjXp5-zyp5ir-159">
          <mxGeometry x="190.00259149157728" y="7.253521126760461" width="56.162980131338074" height="35.49295774647888" as="geometry" />
        </mxCell>
        <mxCell id="xBpnV0RaYjXp5-zyp5ir-164" value="Apagar?" style="rounded=1;whiteSpace=wrap;html=1;fillColor=#FFE8FF;strokeColor=#FFE8FF;fontColor=#262626;" vertex="1" parent="xBpnV0RaYjXp5-zyp5ir-159">
          <mxGeometry x="269.99543742967023" y="9.503521126760461" width="56.162980131338074" height="35.49295774647888" as="geometry" />
        </mxCell>
        <mxCell id="xBpnV0RaYjXp5-zyp5ir-165" value="Atualizar?" style="rounded=1;whiteSpace=wrap;html=1;fillColor=#FFE8FF;strokeColor=#FFE8FF;fontColor=#262626;" vertex="1" parent="xBpnV0RaYjXp5-zyp5ir-159">
          <mxGeometry x="340.0042296904654" y="9.503521126760461" width="56.162980131338074" height="35.49295774647888" as="geometry" />
        </mxCell>
        <mxCell id="xBpnV0RaYjXp5-zyp5ir-180" value="" style="group" vertex="1" connectable="0" parent="1">
          <mxGeometry x="460" y="1770.0038028169015" width="396.1672098218035" height="50" as="geometry" />
        </mxCell>
        <mxCell id="xBpnV0RaYjXp5-zyp5ir-181" value="Nome do Fornecedor" style="text;html=1;align=center;verticalAlign=middle;whiteSpace=wrap;rounded=0;" vertex="1" parent="xBpnV0RaYjXp5-zyp5ir-180">
          <mxGeometry x="57.54865806754998" y="7.253521126760575" width="118.23785290808014" height="35.49295774647888" as="geometry" />
        </mxCell>
        <mxCell id="xBpnV0RaYjXp5-zyp5ir-182" value="" style="ellipse;whiteSpace=wrap;html=1;aspect=fixed;" vertex="1" parent="xBpnV0RaYjXp5-zyp5ir-180">
          <mxGeometry width="50" height="50" as="geometry" />
        </mxCell>
        <mxCell id="xBpnV0RaYjXp5-zyp5ir-183" value="" style="shape=actor;whiteSpace=wrap;html=1;" vertex="1" parent="xBpnV0RaYjXp5-zyp5ir-180">
          <mxGeometry x="10" y="5" width="30" height="40" as="geometry" />
        </mxCell>
        <mxCell id="xBpnV0RaYjXp5-zyp5ir-184" value="Entrar" style="rounded=1;whiteSpace=wrap;html=1;fillColor=#FFE8FF;strokeColor=#FFE8FF;fontColor=#262626;" vertex="1" parent="xBpnV0RaYjXp5-zyp5ir-180">
          <mxGeometry x="190.00259149157728" y="7.253521126760461" width="56.162980131338074" height="35.49295774647888" as="geometry" />
        </mxCell>
        <mxCell id="xBpnV0RaYjXp5-zyp5ir-185" value="Apagar?" style="rounded=1;whiteSpace=wrap;html=1;fillColor=#FFE8FF;strokeColor=#FFE8FF;fontColor=#262626;" vertex="1" parent="xBpnV0RaYjXp5-zyp5ir-180">
          <mxGeometry x="269.99543742967023" y="9.503521126760461" width="56.162980131338074" height="35.49295774647888" as="geometry" />
        </mxCell>
        <mxCell id="xBpnV0RaYjXp5-zyp5ir-186" value="Atualizar?" style="rounded=1;whiteSpace=wrap;html=1;fillColor=#FFE8FF;strokeColor=#FFE8FF;fontColor=#262626;" vertex="1" parent="xBpnV0RaYjXp5-zyp5ir-180">
          <mxGeometry x="340.0042296904654" y="9.503521126760461" width="56.162980131338074" height="35.49295774647888" as="geometry" />
        </mxCell>
        <mxCell id="xBpnV0RaYjXp5-zyp5ir-187" value="" style="group" vertex="1" connectable="0" parent="1">
          <mxGeometry x="460" y="1850.0038028169015" width="396.1672098218035" height="50" as="geometry" />
        </mxCell>
        <mxCell id="xBpnV0RaYjXp5-zyp5ir-188" value="Nome do Fornecedor" style="text;html=1;align=center;verticalAlign=middle;whiteSpace=wrap;rounded=0;" vertex="1" parent="xBpnV0RaYjXp5-zyp5ir-187">
          <mxGeometry x="57.54865806754998" y="7.253521126760575" width="118.23785290808014" height="35.49295774647888" as="geometry" />
        </mxCell>
        <mxCell id="xBpnV0RaYjXp5-zyp5ir-189" value="" style="ellipse;whiteSpace=wrap;html=1;aspect=fixed;" vertex="1" parent="xBpnV0RaYjXp5-zyp5ir-187">
          <mxGeometry width="50" height="50" as="geometry" />
        </mxCell>
        <mxCell id="xBpnV0RaYjXp5-zyp5ir-190" value="" style="shape=actor;whiteSpace=wrap;html=1;" vertex="1" parent="xBpnV0RaYjXp5-zyp5ir-187">
          <mxGeometry x="10" y="5" width="30" height="40" as="geometry" />
        </mxCell>
        <mxCell id="xBpnV0RaYjXp5-zyp5ir-191" value="Entrar" style="rounded=1;whiteSpace=wrap;html=1;fillColor=#FFE8FF;strokeColor=#FFE8FF;fontColor=#262626;" vertex="1" parent="xBpnV0RaYjXp5-zyp5ir-187">
          <mxGeometry x="190.00259149157728" y="7.253521126760461" width="56.162980131338074" height="35.49295774647888" as="geometry" />
        </mxCell>
        <mxCell id="xBpnV0RaYjXp5-zyp5ir-192" value="Apagar?" style="rounded=1;whiteSpace=wrap;html=1;fillColor=#FFE8FF;strokeColor=#FFE8FF;fontColor=#262626;" vertex="1" parent="xBpnV0RaYjXp5-zyp5ir-187">
          <mxGeometry x="269.99543742967023" y="9.503521126760461" width="56.162980131338074" height="35.49295774647888" as="geometry" />
        </mxCell>
        <mxCell id="xBpnV0RaYjXp5-zyp5ir-193" value="Atualizar?" style="rounded=1;whiteSpace=wrap;html=1;fillColor=#FFE8FF;strokeColor=#FFE8FF;fontColor=#262626;" vertex="1" parent="xBpnV0RaYjXp5-zyp5ir-187">
          <mxGeometry x="340.0042296904654" y="9.503521126760461" width="56.162980131338074" height="35.49295774647888" as="geometry" />
        </mxCell>
        <mxCell id="xBpnV0RaYjXp5-zyp5ir-194" value="" style="group" vertex="1" connectable="0" parent="1">
          <mxGeometry x="460" y="1930.0038028169015" width="396.1672098218035" height="50" as="geometry" />
        </mxCell>
        <mxCell id="xBpnV0RaYjXp5-zyp5ir-195" value="Nome do Fornecedor" style="text;html=1;align=center;verticalAlign=middle;whiteSpace=wrap;rounded=0;" vertex="1" parent="xBpnV0RaYjXp5-zyp5ir-194">
          <mxGeometry x="57.54865806754998" y="7.253521126760575" width="118.23785290808014" height="35.49295774647888" as="geometry" />
        </mxCell>
        <mxCell id="xBpnV0RaYjXp5-zyp5ir-196" value="" style="ellipse;whiteSpace=wrap;html=1;aspect=fixed;" vertex="1" parent="xBpnV0RaYjXp5-zyp5ir-194">
          <mxGeometry width="50" height="50" as="geometry" />
        </mxCell>
        <mxCell id="xBpnV0RaYjXp5-zyp5ir-197" value="" style="shape=actor;whiteSpace=wrap;html=1;" vertex="1" parent="xBpnV0RaYjXp5-zyp5ir-194">
          <mxGeometry x="10" y="5" width="30" height="40" as="geometry" />
        </mxCell>
        <mxCell id="xBpnV0RaYjXp5-zyp5ir-198" value="Entrar" style="rounded=1;whiteSpace=wrap;html=1;fillColor=#FFE8FF;strokeColor=#FFE8FF;fontColor=#262626;" vertex="1" parent="xBpnV0RaYjXp5-zyp5ir-194">
          <mxGeometry x="190.00259149157728" y="7.253521126760461" width="56.162980131338074" height="35.49295774647888" as="geometry" />
        </mxCell>
        <mxCell id="xBpnV0RaYjXp5-zyp5ir-199" value="Apagar?" style="rounded=1;whiteSpace=wrap;html=1;fillColor=#FFE8FF;strokeColor=#FFE8FF;fontColor=#262626;" vertex="1" parent="xBpnV0RaYjXp5-zyp5ir-194">
          <mxGeometry x="269.99543742967023" y="9.503521126760461" width="56.162980131338074" height="35.49295774647888" as="geometry" />
        </mxCell>
        <mxCell id="xBpnV0RaYjXp5-zyp5ir-200" value="Atualizar?" style="rounded=1;whiteSpace=wrap;html=1;fillColor=#FFE8FF;strokeColor=#FFE8FF;fontColor=#262626;" vertex="1" parent="xBpnV0RaYjXp5-zyp5ir-194">
          <mxGeometry x="340.0042296904654" y="9.503521126760461" width="56.162980131338074" height="35.49295774647888" as="geometry" />
        </mxCell>
        <mxCell id="xBpnV0RaYjXp5-zyp5ir-201" value="" style="group" vertex="1" connectable="0" parent="1">
          <mxGeometry x="460" y="2020.0038028169015" width="396.1672098218035" height="50" as="geometry" />
        </mxCell>
        <mxCell id="xBpnV0RaYjXp5-zyp5ir-202" value="Nome do Fornecedor" style="text;html=1;align=center;verticalAlign=middle;whiteSpace=wrap;rounded=0;" vertex="1" parent="xBpnV0RaYjXp5-zyp5ir-201">
          <mxGeometry x="57.54865806754998" y="7.253521126760575" width="118.23785290808014" height="35.49295774647888" as="geometry" />
        </mxCell>
        <mxCell id="xBpnV0RaYjXp5-zyp5ir-203" value="" style="ellipse;whiteSpace=wrap;html=1;aspect=fixed;" vertex="1" parent="xBpnV0RaYjXp5-zyp5ir-201">
          <mxGeometry width="50" height="50" as="geometry" />
        </mxCell>
        <mxCell id="xBpnV0RaYjXp5-zyp5ir-204" value="" style="shape=actor;whiteSpace=wrap;html=1;" vertex="1" parent="xBpnV0RaYjXp5-zyp5ir-201">
          <mxGeometry x="10" y="5" width="30" height="40" as="geometry" />
        </mxCell>
        <mxCell id="xBpnV0RaYjXp5-zyp5ir-205" value="Entrar" style="rounded=1;whiteSpace=wrap;html=1;fillColor=#FFE8FF;strokeColor=#FFE8FF;fontColor=#262626;" vertex="1" parent="xBpnV0RaYjXp5-zyp5ir-201">
          <mxGeometry x="190.00259149157728" y="7.253521126760461" width="56.162980131338074" height="35.49295774647888" as="geometry" />
        </mxCell>
        <mxCell id="xBpnV0RaYjXp5-zyp5ir-206" value="Apagar?" style="rounded=1;whiteSpace=wrap;html=1;fillColor=#FFE8FF;strokeColor=#FFE8FF;fontColor=#262626;" vertex="1" parent="xBpnV0RaYjXp5-zyp5ir-201">
          <mxGeometry x="269.99543742967023" y="9.503521126760461" width="56.162980131338074" height="35.49295774647888" as="geometry" />
        </mxCell>
        <mxCell id="xBpnV0RaYjXp5-zyp5ir-207" value="Atualizar?" style="rounded=1;whiteSpace=wrap;html=1;fillColor=#FFE8FF;strokeColor=#FFE8FF;fontColor=#262626;" vertex="1" parent="xBpnV0RaYjXp5-zyp5ir-201">
          <mxGeometry x="340.0042296904654" y="9.503521126760461" width="56.162980131338074" height="35.49295774647888" as="geometry" />
        </mxCell>
      </root>
    </mxGraphModel>
  </diagram>
</mxfile>
